<svg width="24" height="28" viewBox="0 0 24 28" fill="none" xmlns="http://www.w3.org/2000/svg">
<g clip-path="url(#clip0_103_1428)">
<path d="M11.9966 0.621094C13.1223 2.14436 20.1548 4.97709 23.3625 4.97709V16.7958C23.3625 21.0115 12.6341 27.2114 11.9966 27.3717C11.3523 27.2047 0.630676 21.0115 0.630676 16.7958V4.97709C3.83836 4.97709 10.8776 2.15104 11.9966 0.621094Z" stroke="#020526" stroke-linecap="round" stroke-linejoin="round"/>
<path d="M15.2179 21.7066C13.6106 22.8224 12.1933 23.6107 12.0034 23.6575C11.5422 23.5372 3.79089 19.0677 3.79089 16.0211V10.6162" stroke="#020526" stroke-linecap="round" stroke-linejoin="round"/>
<path d="M7.0257 6.83478C9.20258 6.13996 11.4812 5.04428 12.0034 4.34277C12.8172 5.44514 17.8966 7.48952 20.2159 7.48952V16.0278C20.2159 16.8496 19.653 17.7782 18.8189 18.6935" stroke="#020526" stroke-linecap="round" stroke-linejoin="round"/>
</g>
<defs>
<clipPath id="clip0_103_1428">
<rect width="24" height="28" fill="white"/>
</clipPath>
</defs>
</svg>
