<svg width="91" height="80" viewBox="0 0 91 80" fill="none" xmlns="http://www.w3.org/2000/svg">
<g clip-path="url(#clip0_179_1350)">
<path d="M54.1821 51.935L53.9253 51.0293H46.28C47.2218 51.8679 48.2063 52.6523 49.2294 53.3435H63.4882C63.8242 52.9145 64.126 52.4442 64.3936 51.935H54.1842H54.1821Z" fill="white"/>
<path d="M53.2104 48.5893L52.9579 47.7009H42.9412C43.6475 48.4745 44.3902 49.2502 45.1692 49.9978H65.2005C65.3482 49.5449 65.4787 49.0747 65.59 48.5893H53.2126H53.2104Z" fill="white"/>
<path d="M45.1692 27.7031H28.0338C27.6528 28.169 27.2783 28.637 26.9102 29.1094H43.7117C44.2168 28.611 44.7048 28.1387 45.1671 27.7031" fill="white"/>
<path d="M50.1992 15.519C48.4312 14.5287 46.6077 13.8787 44.9875 13.9328C43.5256 13.9805 42.1259 14.5851 40.6812 15.519H50.1992Z" fill="white"/>
<path d="M62.4525 1.33478C60.2458 0.502709 57.7802 0 55.1369 0C52.2667 0 49.4351 0.444204 46.7383 1.33478H62.4504H62.4525Z" fill="white"/>
<path d="M65.1642 2.66528H43.5384C42.6865 3.08782 41.8475 3.56019 41.0449 4.07157H67.0455C66.4634 3.55152 65.8363 3.08348 65.1621 2.66528" fill="white"/>
<path d="M12.7135 69.7162V79.7422H15.9197V68.2731L12.7135 69.7162ZM7.19576 75.1637C7.19576 77.3349 5.66543 77.3565 4.98909 77.3565H3.2062V72.9535H5.07256C6.68636 72.9535 7.19576 73.7921 7.19576 75.1659M7.02453 68.5916C7.02453 70.0933 6.04855 70.57 5.34866 70.57H3.2062V66.6155H5.17958C6.26258 66.6155 7.02667 67.454 7.02667 68.5916M7.53393 71.7054V71.6621C9.27401 71.3175 10.1451 70.0283 10.1451 68.2449C10.1451 64.9362 8.1268 64.2298 5.68683 64.2298H0V79.7422H5.66543C7.02453 79.7422 10.3998 79.5711 10.3998 75.6404C10.3998 73.5147 9.80481 72.0304 7.53393 71.7076M15.9176 66.3186V64.2298H12.7114V67.7639L15.9176 66.3186ZM18.884 79.7422H26.8846V77.1637H22.0881V64.2319H18.884V79.7444V79.7422ZM31.2144 66.6133H35.9681V64.2298H28.0082V79.7422H31.2144V72.973H35.7562V70.5895H31.2144V66.6155V66.6133ZM37.7467 79.7422H40.9529V64.2298H37.7467V79.7422ZM51.1558 79.7422H55.3808V64.2298H52.3886V74.973H52.3458L48.2706 64.2298H43.9408V79.7422H46.9329V68.3966H46.9757L51.1579 79.7422H51.1558ZM68.0493 68.999C68.242 65.7552 66.29 63.9719 63.148 63.9719C57.9064 63.9719 57.7137 67.9481 57.7137 71.8571C57.7137 77.7466 58.328 80.0023 63.7195 80.0023C64.993 80.0023 67.1804 79.6577 68.0493 79.4865V71.6209H63.1052V74.0066H64.8453V77.4432C64.3573 77.6166 63.7837 77.7466 63.2529 77.7466C61.4272 77.7466 60.9606 76.8863 60.9606 72.0326C60.9606 69.0207 60.9606 66.2969 62.9575 66.2969C64.6548 66.2969 64.8881 67.5646 64.8667 69.0033H68.0493V68.999ZM70.6177 79.7422H79.1512V77.3544H73.8239V72.8235H78.5776V70.4378H73.8239V66.6133H78.9842V64.2298H70.6199V79.7422H70.6177ZM87.4556 68.6566C87.4556 69.6426 87.0961 70.934 85.8226 70.934H84.4014V66.6155H85.8226C86.8414 66.6155 87.4556 67.1745 87.4556 68.6566ZM90.7046 68.2883C90.7046 65.6469 89.3027 64.2298 87.1175 64.2298H81.1973V79.7422H84.4035V73.3175H85.2318C87.6932 73.3175 87.522 74.8863 87.522 76.7325C87.522 77.7444 87.4385 78.7953 87.8623 79.7422H91.0043C90.7068 79.0965 90.6426 76.1756 90.6426 75.1897C90.6426 72.3945 88.5622 72.2233 87.8623 72.1366V72.0911C89.9427 71.7487 90.7068 70.2666 90.7068 68.2883" fill="white"/>
<path d="M67.0435 27.1051H57.4249C57.6903 26.7042 57.9172 26.3402 58.1162 26.0065H67.8012C67.6621 26.2167 67.2896 26.7649 67.0435 27.1051ZM59.3919 41.779C58.0349 43.4453 55.276 42.8841 52.2218 40.5916C54.7238 39.1809 57.2965 37.5233 59.7193 35.61C60.6653 38.6674 60.2373 40.7389 59.3919 41.779ZM36.2999 46.2167C34.9237 46.5114 33.6245 46.5937 32.8626 46.2167H36.2999ZM36.6317 37.3911C36.835 37.1159 37.0384 36.8407 37.246 36.5677H46.9887C47.2134 36.8429 47.4467 37.1181 47.6843 37.3911H36.6317ZM61.3973 11.8743C61.3717 11.727 61.346 11.5753 61.3117 11.4171C61.2218 10.9621 61.102 10.5287 60.9564 10.117H70.7934C70.9624 10.7021 71.0908 11.2871 71.1893 11.8722H61.3973V11.8743ZM70.331 8.71073H60.3015C59.9205 8.06284 59.4539 7.48646 58.9146 6.98592H69.4578C69.1603 6.49188 68.8307 6.02384 68.4732 5.57963H56.8256C54.8201 4.63706 52.2839 4.34453 49.4351 4.78007C48.4206 4.94041 47.4317 5.21127 46.4879 5.57963H38.9261C38.3546 6.02817 37.7939 6.49621 37.2631 6.98808H43.7654C43.2453 7.32395 42.5625 7.84832 42.0125 8.3532H35.8997C35.3689 8.92525 34.8638 9.51896 34.3908 10.1343H40.3944C40.3944 10.1343 39.8807 10.8342 39.6624 11.2373H33.5924C33.1173 11.9328 32.6978 12.6306 32.3275 13.3283H38.7078C38.6029 13.6425 38.513 13.9632 38.4424 14.2925H31.8481C31.4414 15.1679 31.1097 16.0455 30.8485 16.9166H38.2626C38.2648 16.9556 38.2862 17.1939 38.2969 17.2849C38.0978 17.4475 37.8966 17.6078 37.6954 17.7746H30.6152C30.382 18.7129 30.2236 19.6468 30.1358 20.5721H34.6027C34.6027 20.5721 34.44 20.7302 34.1703 20.9989H56.9754C56.3911 20.377 55.7084 19.6966 54.9336 18.9968H36.2978C36.6231 18.7042 36.957 18.4095 37.2866 18.1278H53.9362C53.1485 17.4691 52.2946 16.8277 51.4127 16.2535H39.6346C39.5896 16.286 39.5425 16.3207 39.4976 16.3554C39.9021 14.468 41.0515 12.0347 44.0565 10.1408C46.5435 8.57855 49.6876 7.51463 53.3925 7.83315C54.788 7.9545 56.2006 8.21669 57.5747 8.82124C61.1833 10.3662 61.4958 12.8927 61.5728 13.9133C61.5728 13.9133 61.5835 13.6836 61.5621 13.2849H71.3627C71.4055 13.857 71.4183 14.4247 71.4076 14.9881H61.5472C61.5258 15.4626 61.4894 15.9307 61.438 16.3944H71.3241C71.2728 16.9317 71.2 17.4561 71.1101 17.9718H61.2069C61.0998 18.5439 60.9757 19.1073 60.828 19.6598H70.7356C70.6157 20.1062 70.4787 20.5395 70.331 20.9599H60.4428C60.233 21.5991 59.9976 22.2254 59.7365 22.8342H69.5691C69.5691 22.8342 69.2159 23.5948 69.0233 23.9437H59.2313C59.1393 24.1408 59.043 24.3359 58.9424 24.5265C58.6085 24.1972 58.3752 23.9653 58.1655 23.7638H59.3191C59.1372 23.532 58.6642 22.9057 57.9322 22.0628H56.0358C55.5264 21.7443 55.1519 21.5645 54.803 21.4475C54.1288 21.2243 53.4097 21.2004 52.9837 21.2828C52.4294 21.389 51.8986 21.5883 51.2544 22.0628H33.1258C33.3399 21.8418 33.8429 21.3261 33.8685 21.3001H30.0823C30.0095 22.6002 30.0652 23.8895 30.2343 25.1484C30.2343 25.1484 29.2176 26.3055 29.117 26.4247H46.5649C47.207 25.844 47.7549 25.3673 48.1616 25.0184H30.352C31.0711 24.2145 31.4928 23.7638 31.4928 23.7638H49.4929C49.4929 23.7638 49.3837 23.896 49.311 23.974C49.2382 24.052 49.0777 24.2254 48.8486 24.4377C48.5019 24.7302 48.701 24.5634 48.5768 24.6674C48.9856 24.4399 49.4222 24.2752 50.0194 24.26C51.4406 24.2189 53.5017 25.1246 56.1857 28.8537C56.0465 29.0336 55.9074 29.2134 55.764 29.389H65.2456C64.9909 29.6836 64.732 29.974 64.4687 30.2579H55.0363C54.253 31.1614 53.4311 32.0065 52.5963 32.7887H61.8982C61.5921 33.0618 61.2903 33.3304 60.9864 33.5861H51.7145C50.6722 34.4984 49.617 35.3131 48.5832 36.026H57.8615C57.5212 36.2709 57.1852 36.5049 56.8577 36.7259H48.2194C46.5221 34.7086 44.8184 32.1322 43.455 29.3933C43.455 29.3933 42.5497 30.2947 42.3314 30.5287H25.8466C25.502 30.9968 25.166 31.4691 24.8407 31.935H41.0236C40.679 32.3207 40.2895 32.7671 39.8572 33.2849H44.5466C44.6964 33.5103 44.8569 33.7378 45.0175 33.9675H39.2921C39.4847 33.7335 39.6731 33.5038 39.8572 33.2828H23.9289C23.5693 33.8288 23.2247 34.3727 22.8994 34.9079H38.5344C38.2262 35.2958 37.9073 35.7096 37.5713 36.1517H22.1674C21.8143 36.7736 21.4868 37.3825 21.1914 37.974H36.2165C36.2165 37.974 36.0538 38.1994 35.8655 38.4615C36.1672 38.9382 36.4647 39.3955 36.7558 39.8353H50.0215C50.349 40.143 50.6808 40.4442 51.0189 40.7389H37.368C37.6248 41.1138 37.8731 41.467 38.1128 41.7985C34.6091 43.1809 32.961 42.9404 32.961 42.9426C32.961 42.9426 33.1237 42.6479 33.2136 42.4984H19.5263C19.3871 43.4323 19.4599 44.2015 19.6932 44.8386H32.0214C31.8545 45.2871 31.7218 45.8657 31.7325 45.8028H20.2326C21.2128 47.0314 22.9829 47.5385 24.6973 47.7356C27.3876 48.0498 29.9368 48.0628 33.0681 47.7356C34.47 47.6143 37.2417 47.1896 41.2013 45.7053C41.471 46.0217 41.7449 46.3424 42.0253 46.6652H65.9391C65.999 46.2037 66.044 45.7335 66.0739 45.2568H52.2646L51.9264 44.0607H39.84L39.7694 43.9718H32.5116C32.5608 43.8332 32.6122 43.701 32.6614 43.5796H39.4526C39.2793 43.3586 39.1423 43.1809 39.1123 43.1419H54.3321C56.2713 44.2839 58.3303 45.0098 60.4321 45.0336C62.384 45.0336 63.6019 44.247 64.3146 43.1073H66.1339C66.1296 42.7064 66.1167 42.3034 66.0975 41.8982H64.8561C65.0765 41.1831 65.1686 40.4095 65.1686 39.6381H65.9027C65.8471 39.1658 65.7807 38.6956 65.7037 38.2297H65.0958C65.0359 37.6316 64.9439 37.0336 64.8283 36.4485H65.3698C65.2692 35.974 65.16 35.5038 65.038 35.0401H64.5029C64.3381 34.416 64.1562 33.8245 63.9721 33.2806H64.5372C64.3745 32.7606 64.0171 31.7573 64.0128 31.7595C68.3234 27.2741 71.459 21.74 71.5746 15.0791C71.6152 12.7064 71.1465 10.7432 70.3503 8.71073" fill="white"/>
<path d="M55.1666 55.3023L54.9162 54.416H50.978C53.6491 55.8656 56.53 56.5894 59.5051 55.9111C59.7919 55.8461 60.6116 55.6121 61.1724 55.3023H55.1666Z" fill="white"/>
<path d="M20.6305 39.1333C20.3865 39.6468 19.8878 40.8841 19.7551 41.4085H33.8641C34.3264 40.6761 34.8401 39.909 35.3795 39.1333H20.6284H20.6305Z" fill="white"/>
</g>
<defs>
<clipPath id="clip0_179_1350">
<rect width="91" height="80" fill="white"/>
</clipPath>
</defs>
</svg>
