<svg xmlns="http://www.w3.org/2000/svg" width="300" height="55" viewBox="0 0 587.19 108.52"><defs><style>.cls-1{fill:#FFFFFF}</style></defs><title>Cloudtango</title><g id="Layer_2" data-name="Layer 2"><g id="Layer_1-2" data-name="Layer 1"><path class="cls-1" d="M44.84 41.39a19.7 19.7 0 00-5.57-10.46q-4.1-3.8-11.21-3.79A18.41 18.41 0 0019 29.32a20.05 20.05 0 00-6.49 5.75 26 26 0 00-3.91 8.11 32.87 32.87 0 000 18.51 26 26 0 003.91 8.11A19.91 19.91 0 0019 75.54a18.31 18.31 0 009.09 2.19 15.93 15.93 0 006.32-1.27A17 17 0 0039.67 73a18.74 18.74 0 003.79-5.35 19.68 19.68 0 001.84-6.78h7.25q-1.5 10.8-8 16.9t-16.5 6.09a27.23 27.23 0 01-12-2.53 26.06 26.06 0 01-8.8-6.78 29.26 29.26 0 01-5.4-10 40.71 40.71 0 010-24.2 29.22 29.22 0 015.4-10A26.22 26.22 0 0116 23.57a27.37 27.37 0 0112-2.53 25.81 25.81 0 0116.21 5.06q6.61 5.07 7.88 15.29zM62.78 0H70v82.1h-7.22zM109 21a27.37 27.37 0 0112 2.53 26.22 26.22 0 018.8 6.79 29.39 29.39 0 015.4 10 40.71 40.71 0 010 24.2 29.43 29.43 0 01-5.4 10 26.06 26.06 0 01-8.8 6.78 29.79 29.79 0 01-24 0 26.06 26.06 0 01-8.8-6.78 29.09 29.09 0 01-5.4-10 40.71 40.71 0 010-24.2 29 29 0 015.4-10 26.22 26.22 0 018.8-6.75A27.36 27.36 0 01109 21zm0 6.1a18.37 18.37 0 00-9.08 2.18 20.09 20.09 0 00-6.5 5.75 26.19 26.19 0 00-3.91 8.11 33.11 33.11 0 000 18.51 26.19 26.19 0 003.91 8.11 19.94 19.94 0 006.5 5.74 19.94 19.94 0 0018.17 0 19.91 19.91 0 006.49-5.74 26 26 0 003.91-8.11 32.87 32.87 0 000-18.51 26 26 0 00-3.91-8.11 20.05 20.05 0 00-6.49-5.75 18.41 18.41 0 00-9.09-2.14zM195.93 82.1h-6.67V71.41H189a20.84 20.84 0 01-8.33 9.19 23.42 23.42 0 01-12.13 3.22 26.24 26.24 0 01-9.6-1.55 15.64 15.64 0 01-6.44-4.48 18.51 18.51 0 01-3.63-7.13 35.73 35.73 0 01-1.15-9.37V22.77H155V61.4q.23 8.06 3.74 12.19t12.13 4.14a15.39 15.39 0 008-2 16.85 16.85 0 005.57-5.35 23.94 23.94 0 003.22-7.65 37.47 37.47 0 001-8.79V22.77h7.24zM261.82 82.1h-6.67V70.83h-.23a17.15 17.15 0 01-3.39 5.29 23.59 23.59 0 01-5.12 4.14 25 25 0 01-6.15 2.64 23.73 23.73 0 01-6.5.92A25.73 25.73 0 01222 81.29a24 24 0 01-8.34-6.84 29.1 29.1 0 01-4.95-10 45.64 45.64 0 010-24 29.15 29.15 0 014.95-10 24.2 24.2 0 018.34-6.88A25.86 25.86 0 01233.76 21a24.84 24.84 0 016.5.86 24.39 24.39 0 015.92 2.48 19.66 19.66 0 014.89 4 17.16 17.16 0 013.27 5.66h.23V0h7.25zm-47.49-29.67a38.78 38.78 0 001.09 9.14 25.28 25.28 0 003.45 8.11 19 19 0 006 5.81 16.72 16.72 0 008.85 2.24 19.57 19.57 0 009.72-2.24 19.29 19.29 0 006.44-5.81 24 24 0 003.56-8.11 38.87 38.87 0 000-18.28 24 24 0 00-3.56-8.1 19.19 19.19 0 00-6.44-5.81 19.46 19.46 0 00-9.72-2.24 16.63 16.63 0 00-8.85 2.24 18.84 18.84 0 00-6 5.81 25.23 25.23 0 00-3.45 8.1 38.91 38.91 0 00-1.09 9.14zM311.26 35.07h-12.07v27.14c0 2.37.63 3.93 1.89 4.65A10.24 10.24 0 00306.2 68c.84 0 1.69 0 2.53-.12s1.69-.11 2.53-.11V82.1c-1.76.07-3.55.19-5.35.34s-3.58.23-5.34.23a43 43 0 01-10.3-1 13.31 13.31 0 01-6.43-3.45 13.12 13.12 0 01-3.28-6.44 46 46 0 01-.92-10.12V35.07h-9.89V22.42h9.89v-18h19.55v18h12.07zM319.19 40.82a19.16 19.16 0 012.81-9.77 18.76 18.76 0 016.56-6.21 28.11 28.11 0 018.91-3.22 53.63 53.63 0 0110.06-.92 70.71 70.71 0 0110.29.74 26 26 0 018.91 2.94 16.73 16.73 0 016.27 6.09q2.35 3.91 2.36 10.23v26.11c0 2.53.09 5.11.28 7.76a20.74 20.74 0 002 7.53h-19.7a10.48 10.48 0 01-.74-2.76c-.12-.92-.25-1.88-.41-2.88a20.94 20.94 0 01-9 5.7 34.92 34.92 0 01-10.64 1.66 28.26 28.26 0 01-8-1.09 18.45 18.45 0 01-6.5-3.33 15.51 15.51 0 01-4.31-5.64 19 19 0 01-1.55-8 17.84 17.84 0 011.61-8 14.76 14.76 0 014.37-5.29 21.4 21.4 0 016.32-3.22 57.88 57.88 0 017.42-1.84q3.84-.69 7.7-1.15c2.57-.3 5-.69 7.3-1.15a9.25 9.25 0 003.86-1.66c.87-.73 1.32-2 1.32-3.86a4.47 4.47 0 00-.92-2.87 7.65 7.65 0 00-2.3-1.9 11.38 11.38 0 00-3-1.09 15.62 15.62 0 00-3.16-.34q-8.4 0-9.77 7.47zM336.32 65q0 3.68 2.42 5.23a10.43 10.43 0 005.75 1.55q7 0 9.66-4.14t2.3-13.45a14.71 14.71 0 01-5.45 1.75 53.16 53.16 0 00-6.61 1.44 17.06 17.06 0 00-5.69 2.41 5.83 5.83 0 00-2.38 5.21zM388.18 22.42h19v8.17h.24a17.4 17.4 0 013.44-4.14 21.38 21.38 0 014.6-3.11 26 26 0 015.29-1.95 22.24 22.24 0 015.41-.69q7.47 0 11.78 2.41a17 17 0 016.41 5.89 19.69 19.69 0 012.7 7.54 50.66 50.66 0 01.58 7.24V82.1h-19.55V47.26a15.13 15.13 0 00-.86-5.29 7.93 7.93 0 00-2.88-3.74c-1.34-1-3.35-1.43-6-1.43a9.83 9.83 0 00-4.77 1.09 9.41 9.41 0 00-3.28 2.87 12.75 12.75 0 00-1.9 4.08 17.84 17.84 0 00-.63 4.72V82.1h-19.58zM520.36 88.64c0 8.93-5.66 19.88-33.71 19.88-22.14 0-31.95-6.29-31.95-14.6 0-6.16 4.15-9.68 9.93-11.44-4.78-2.9-7.67-7.17-7.67-12.08 0-6.67 4.15-10.44 9.31-12.08a19.33 19.33 0 01-6-14.46c0-13 10.94-21.89 27.3-21.89a37.41 37.41 0 0113.58 2.39c4-2.39 5.54-8.93 5.54-14.72l16 4.78c0 7.8-6.79 14.22-13.08 15.48a19.66 19.66 0 015.54 14c0 13-11 21.89-27.55 21.89a37.08 37.08 0 01-10.82-1.51c-2.39.5-3.4 1.51-3.4 3.14 0 1.89.63 2.89 6.54 2.89h14.34c14.65-.04 26.1 5.37 26.1 18.33zm-20 1.51c0-2.52-2-3.77-7.42-3.77h-9.31c-6.92 0-9.94 1.13-9.94 3.77 0 2.39 3.27 4.15 13 4.15 10.52 0 13.67-1.63 13.67-4.15zM487.53 50.4c4.53.12 7.42-2.52 7.67-6.29s-2.77-6.67-7.17-6.79-7.3 2.51-7.42 6.29 2.64 6.66 6.92 6.79zM524.29 52.32a33.64 33.64 0 012.3-12.48A30.18 30.18 0 01533 29.78a29.52 29.52 0 0110-6.67 34.69 34.69 0 0125.41 0 30.24 30.24 0 0110 6.67 29.87 29.87 0 016.5 10.06 33.64 33.64 0 012.3 12.48 33.49 33.49 0 01-2.3 12.53 29.3 29.3 0 01-6.5 10 30.55 30.55 0 01-10 6.61 34.69 34.69 0 01-25.41 0 29.23 29.23 0 01-16.39-16.56 33.49 33.49 0 01-2.32-12.58zm19.55 0a30.42 30.42 0 00.57 5.81 17.66 17.66 0 002 5.34 11.33 11.33 0 003.59 3.91 10 10 0 005.69 1.5 10.31 10.31 0 005.75-1.5 11.22 11.22 0 003.68-3.91 17.38 17.38 0 001.95-5.34 29.39 29.39 0 000-11.62 17.44 17.44 0 00-1.95-5.35 11.73 11.73 0 00-3.68-4 10 10 0 00-5.75-1.55A9.72 9.72 0 00550 37.2a11.86 11.86 0 00-3.62 4 17.72 17.72 0 00-2 5.35 30.42 30.42 0 00-.54 5.77z"/></g></g></svg>