<svg width="27" height="24" viewBox="0 0 27 24" fill="none" xmlns="http://www.w3.org/2000/svg">
<g clip-path="url(#clip0_103_1485)">
<path d="M20.1082 15.2754H21.7372C23.8391 15.2754 25.544 13.5645 25.544 11.4551C25.544 9.3457 23.8391 7.63477 21.7372 7.63477C21.3343 7.63477 20.9431 7.69922 20.5811 7.81641C20.6278 7.58203 20.6512 7.33594 20.6512 7.08984C20.6512 4.98047 18.9463 3.26953 16.8444 3.26953C15.8927 3.26953 15.0286 3.62109 14.3572 4.20117C13.6157 2.07422 11.6013 0.544922 9.23086 0.544922C6.23564 0.544922 3.80094 2.98828 3.80094 6C3.80094 6.57422 3.88852 7.13086 4.05784 7.65234C2.09606 7.80469 0.548828 9.44531 0.548828 11.4551C0.548828 13.5645 2.25371 15.2754 4.35561 15.2754H5.98458" stroke="#020526" stroke-miterlimit="10"/>
<path d="M14.3747 4.20117C14.5148 4.59961 14.6082 5.02148 14.6491 5.45508" stroke="#020526" stroke-miterlimit="10"/>
<path d="M20.587 7.81641C20.4994 8.26172 20.3359 8.68359 20.114 9.05859" stroke="#020526" stroke-miterlimit="10"/>
<path d="M4.052 7.64639C4.52493 7.61123 5.0037 7.65811 5.46495 7.80459" stroke="#020526" stroke-miterlimit="10"/>
<path d="M13.0493 8.45508C12.4655 9.31055 8.69954 11.0625 7.06473 11.0625V17.2617C7.06473 20.1738 12.7107 23.3613 13.0435 23.4551C13.3763 23.3613 19.0222 19.9512 19.0222 17.5898V11.0625C17.3641 11.0625 13.6273 9.31055 13.0493 8.45508Z" stroke="#020526" stroke-linejoin="round"/>
<path d="M13.0493 11.1797C12.6815 11.7246 10.2117 12.8379 9.24254 12.8379V16.7813C9.24254 18.6328 12.8333 20.666 13.0493 20.7246C13.2595 20.666 16.8561 18.498 16.8561 16.9922V12.8379C15.7701 12.8379 13.423 11.7188 13.0552 11.1797H13.0493Z" stroke="#020526" stroke-linejoin="round"/>
</g>
<defs>
<clipPath id="clip0_103_1485">
<rect width="26.087" height="24" fill="white"/>
</clipPath>
</defs>
</svg>
