<svg width="22" height="26" viewBox="0 0 22 26" fill="none" xmlns="http://www.w3.org/2000/svg">
<path d="M20.3482 15.1131C20.8728 13.8893 21.1694 12.5398 21.1694 11.1159C21.1751 5.52899 16.6588 1 11.0875 1C5.5163 1 1 5.52899 1 11.1159C1 16.7028 5.06581 20.7572 10.2436 21.1861" stroke="white" stroke-linecap="round" stroke-linejoin="round"/>
<path d="M10.2434 17.9777C6.83341 17.5603 4.1875 14.6496 4.1875 11.1156C4.1875 7.29568 7.2782 4.19629 11.0874 4.19629C14.8966 4.19629 17.9873 7.29568 17.9873 11.1156C17.9873 11.8247 17.8732 12.5109 17.6737 13.1571" stroke="white" stroke-linecap="round" stroke-linejoin="round"/>
<path d="M14.7994 11.0532C14.7651 9.02317 13.1172 7.3877 11.0871 7.3877C9.05705 7.3877 7.36914 9.05748 7.36914 11.1161C7.36914 12.8831 8.59515 14.3585 10.2431 14.7416" stroke="white" stroke-linecap="round" stroke-linejoin="round"/>
<path d="M20.8616 18.6929L12.6787 12.7114V22.8502C12.6844 23.159 12.9239 23.2619 13.1691 23.0275L15.4558 20.803L17.6683 24.7201C17.8565 25.0232 18.2899 25.0918 18.6434 24.8688L19.5672 24.2855C19.9151 24.0682 20.0519 23.6508 19.8751 23.3477L17.7481 19.6536H20.5309C21.1696 19.6422 21.2836 18.9788 20.8559 18.7043L20.8616 18.6929Z" stroke="white" stroke-linecap="round" stroke-linejoin="round"/>
</svg>
