<svg width="790" height="492" viewBox="0 0 790 492" fill="none" xmlns="http://www.w3.org/2000/svg">
<g filter="url(#filter0_f_2359_2014)">
<ellipse cx="395" cy="246" rx="275" ry="126" fill="#12EAFC" fill-opacity="0.2"/>
</g>
<g filter="url(#filter1_f_2359_2014)">
<path d="M359.178 289.103H271.928" stroke="#05C6F1" stroke-width="6" stroke-miterlimit="10"/>
<path d="M453.693 209.086H404.014C396.203 209.086 385.58 204.788 381.284 198.224L341.76 146.963C337.464 140.477 327.778 136.336 319.967 136.336H271.85" stroke="#05C6F1" stroke-width="6" stroke-miterlimit="10"/>
<path d="M337.307 354.586H397.922C405.733 354.586 416.356 350.523 420.652 344.037L452.912 296.214C457.208 289.728 466.894 289.103 474.705 289.103H519.15" stroke="#05C6F1" stroke-width="6" stroke-miterlimit="10"/>
<path d="M446.428 136.336H504.621" stroke="#05C6F1" stroke-width="6" stroke-miterlimit="10"/>
<path d="M519.15 136.336H533.678" stroke="#05C6F1" stroke-width="6" stroke-miterlimit="10"/>
<path d="M548.207 136.336H562.736" stroke="#05C6F1" stroke-width="6" stroke-miterlimit="10"/>
<path d="M359.178 383.733H373.707" stroke="#05C6F1" stroke-width="6" stroke-miterlimit="10"/>
<path d="M388.236 383.733H402.764" stroke="#05C6F1" stroke-width="6" stroke-miterlimit="10"/>
<path d="M417.293 383.733H431.9" stroke="#05C6F1" stroke-width="6" stroke-miterlimit="10"/>
<path d="M293.721 260.034H308.25" stroke="#05C6F1" stroke-width="6" stroke-miterlimit="10"/>
<path d="M322.779 260.034H337.307" stroke="#05C6F1" stroke-width="6" stroke-miterlimit="10"/>
<path d="M453.693 260.034H468.221" stroke="#05C6F1" stroke-width="6" stroke-miterlimit="10"/>
<path d="M424.635 260.034H439.164" stroke="#05C6F1" stroke-width="6" stroke-miterlimit="10"/>
<path d="M482.75 260.034H497.279" stroke="#05C6F1" stroke-width="6" stroke-miterlimit="10"/>
<path d="M300.986 107.267H315.514" stroke="#05C6F1" stroke-width="6" stroke-miterlimit="10"/>
<path d="M330.043 107.267H344.65" stroke="#05C6F1" stroke-width="6" stroke-miterlimit="10"/>
<path d="M359.178 107.267H373.707" stroke="#05C6F1" stroke-width="6" stroke-miterlimit="10"/>
<path d="M315.514 376.387C327.55 376.387 337.307 366.627 337.307 354.586C337.307 342.545 327.55 332.784 315.514 332.784C303.478 332.784 293.721 342.545 293.721 354.586C293.721 366.627 303.478 376.387 315.514 376.387Z" stroke="#05C6F1" stroke-width="6" stroke-miterlimit="10"/>
<path d="M482.75 383.655C494.786 383.655 504.543 373.894 504.543 361.853C504.543 349.812 494.786 340.052 482.75 340.052C470.714 340.052 460.957 349.812 460.957 361.853C460.957 373.894 470.714 383.655 482.75 383.655Z" stroke="#05C6F1" stroke-width="6" stroke-miterlimit="10"/>
<path d="M540.943 310.905C552.979 310.905 562.736 301.144 562.736 289.103C562.736 277.062 552.979 267.302 540.943 267.302C528.907 267.302 519.15 277.062 519.15 289.103C519.15 301.144 528.907 310.905 540.943 310.905Z" stroke="#05C6F1" stroke-width="6" stroke-miterlimit="10"/>
<path d="M380.971 310.905C393.007 310.905 402.764 301.144 402.764 289.103C402.764 277.062 393.007 267.302 380.971 267.302C368.936 267.302 359.178 277.062 359.178 289.103C359.178 301.144 368.936 310.905 380.971 310.905Z" stroke="#05C6F1" stroke-width="6" stroke-miterlimit="10"/>
<path d="M315.514 230.887C327.55 230.887 337.307 221.127 337.307 209.086C337.307 197.045 327.55 187.284 315.514 187.284C303.478 187.284 293.721 197.045 293.721 209.086C293.721 221.127 303.478 230.887 315.514 230.887Z" stroke="#05C6F1" stroke-width="6" stroke-miterlimit="10"/>
<path d="M475.486 230.887C487.522 230.887 497.279 221.127 497.279 209.086C497.279 197.045 487.522 187.284 475.486 187.284C463.45 187.284 453.693 197.045 453.693 209.086C453.693 221.127 463.45 230.887 475.486 230.887Z" stroke="#05C6F1" stroke-width="6" stroke-miterlimit="10"/>
<path d="M424.635 158.137C436.671 158.137 446.428 148.377 446.428 136.336C446.428 124.295 436.671 114.534 424.635 114.534C412.6 114.534 402.843 124.295 402.843 136.336C402.843 148.377 412.6 158.137 424.635 158.137Z" stroke="#05C6F1" stroke-width="6" stroke-miterlimit="10"/>
<path d="M250.057 158.137C262.093 158.137 271.85 148.377 271.85 136.336C271.85 124.295 262.093 114.534 250.057 114.534C238.021 114.534 228.264 124.295 228.264 136.336C228.264 148.377 238.021 158.137 250.057 158.137Z" stroke="#05C6F1" stroke-width="6" stroke-miterlimit="10"/>
<path d="M250.057 310.905C262.093 310.905 271.85 301.144 271.85 289.103C271.85 277.062 262.093 267.302 250.057 267.302C238.021 267.302 228.264 277.062 228.264 289.103C228.264 301.144 238.021 310.905 250.057 310.905Z" stroke="#05C6F1" stroke-width="6" stroke-miterlimit="10"/>
</g>
<path d="M359.178 289.103H271.928" stroke="#05C6F1" stroke-width="6" stroke-miterlimit="10"/>
<path d="M453.693 209.086H404.014C396.203 209.086 385.58 204.788 381.284 198.224L341.76 146.963C337.464 140.477 327.778 136.336 319.967 136.336H271.85" stroke="#05C6F1" stroke-width="6" stroke-miterlimit="10"/>
<path d="M337.307 354.586H397.922C405.733 354.586 416.356 350.523 420.652 344.037L452.912 296.214C457.208 289.728 466.894 289.103 474.705 289.103H519.15" stroke="#05C6F1" stroke-width="6" stroke-miterlimit="10"/>
<path d="M446.428 136.336H504.621" stroke="#05C6F1" stroke-width="6" stroke-miterlimit="10"/>
<path d="M519.15 136.336H533.678" stroke="#05C6F1" stroke-width="6" stroke-miterlimit="10"/>
<path d="M548.207 136.336H562.736" stroke="#05C6F1" stroke-width="6" stroke-miterlimit="10"/>
<path d="M359.178 383.733H373.707" stroke="#05C6F1" stroke-width="6" stroke-miterlimit="10"/>
<path d="M388.236 383.733H402.764" stroke="#05C6F1" stroke-width="6" stroke-miterlimit="10"/>
<path d="M417.293 383.733H431.9" stroke="#05C6F1" stroke-width="6" stroke-miterlimit="10"/>
<path d="M293.721 260.034H308.25" stroke="#05C6F1" stroke-width="6" stroke-miterlimit="10"/>
<path d="M322.779 260.034H337.307" stroke="#05C6F1" stroke-width="6" stroke-miterlimit="10"/>
<path d="M453.693 260.034H468.221" stroke="#05C6F1" stroke-width="6" stroke-miterlimit="10"/>
<path d="M424.635 260.034H439.164" stroke="#05C6F1" stroke-width="6" stroke-miterlimit="10"/>
<path d="M482.75 260.034H497.279" stroke="#05C6F1" stroke-width="6" stroke-miterlimit="10"/>
<path d="M300.986 107.267H315.514" stroke="#05C6F1" stroke-width="6" stroke-miterlimit="10"/>
<path d="M330.043 107.267H344.65" stroke="#05C6F1" stroke-width="6" stroke-miterlimit="10"/>
<path d="M359.178 107.267H373.707" stroke="#05C6F1" stroke-width="6" stroke-miterlimit="10"/>
<path d="M315.514 376.387C327.55 376.387 337.307 366.627 337.307 354.586C337.307 342.545 327.55 332.784 315.514 332.784C303.478 332.784 293.721 342.545 293.721 354.586C293.721 366.627 303.478 376.387 315.514 376.387Z" stroke="#05C6F1" stroke-width="6" stroke-miterlimit="10"/>
<path d="M482.75 383.655C494.786 383.655 504.543 373.894 504.543 361.853C504.543 349.812 494.786 340.052 482.75 340.052C470.714 340.052 460.957 349.812 460.957 361.853C460.957 373.894 470.714 383.655 482.75 383.655Z" stroke="#05C6F1" stroke-width="6" stroke-miterlimit="10"/>
<path d="M540.943 310.905C552.979 310.905 562.736 301.144 562.736 289.103C562.736 277.062 552.979 267.302 540.943 267.302C528.907 267.302 519.15 277.062 519.15 289.103C519.15 301.144 528.907 310.905 540.943 310.905Z" stroke="#05C6F1" stroke-width="6" stroke-miterlimit="10"/>
<path d="M380.971 310.905C393.007 310.905 402.764 301.144 402.764 289.103C402.764 277.062 393.007 267.302 380.971 267.302C368.936 267.302 359.178 277.062 359.178 289.103C359.178 301.144 368.936 310.905 380.971 310.905Z" stroke="#05C6F1" stroke-width="6" stroke-miterlimit="10"/>
<path d="M315.514 230.887C327.55 230.887 337.307 221.127 337.307 209.086C337.307 197.045 327.55 187.284 315.514 187.284C303.478 187.284 293.721 197.045 293.721 209.086C293.721 221.127 303.478 230.887 315.514 230.887Z" stroke="#05C6F1" stroke-width="6" stroke-miterlimit="10"/>
<path d="M475.486 230.887C487.522 230.887 497.279 221.127 497.279 209.086C497.279 197.045 487.522 187.284 475.486 187.284C463.45 187.284 453.693 197.045 453.693 209.086C453.693 221.127 463.45 230.887 475.486 230.887Z" stroke="#05C6F1" stroke-width="6" stroke-miterlimit="10"/>
<path d="M424.635 158.137C436.671 158.137 446.428 148.377 446.428 136.336C446.428 124.295 436.671 114.534 424.635 114.534C412.6 114.534 402.843 124.295 402.843 136.336C402.843 148.377 412.6 158.137 424.635 158.137Z" stroke="#05C6F1" stroke-width="6" stroke-miterlimit="10"/>
<path d="M250.057 158.137C262.093 158.137 271.85 148.377 271.85 136.336C271.85 124.295 262.093 114.534 250.057 114.534C238.021 114.534 228.264 124.295 228.264 136.336C228.264 148.377 238.021 158.137 250.057 158.137Z" stroke="#05C6F1" stroke-width="6" stroke-miterlimit="10"/>
<path d="M250.057 310.905C262.093 310.905 271.85 301.144 271.85 289.103C271.85 277.062 262.093 267.302 250.057 267.302C238.021 267.302 228.264 277.062 228.264 289.103C228.264 301.144 238.021 310.905 250.057 310.905Z" stroke="#05C6F1" stroke-width="6" stroke-miterlimit="10"/>
<path d="M359.178 289.103H271.928" stroke="white" stroke-miterlimit="10"/>
<path d="M453.693 209.086H404.014C396.203 209.086 385.58 204.788 381.284 198.224L341.76 146.963C337.464 140.477 327.778 136.336 319.967 136.336H271.85" stroke="white" stroke-miterlimit="10"/>
<path d="M337.307 354.586H397.922C405.733 354.586 416.356 350.523 420.652 344.037L452.912 296.214C457.208 289.728 466.894 289.103 474.705 289.103H519.15" stroke="white" stroke-miterlimit="10"/>
<path d="M446.428 136.336H504.621" stroke="white" stroke-miterlimit="10"/>
<path d="M519.15 136.336H533.678" stroke="white" stroke-miterlimit="10"/>
<path d="M548.207 136.336H562.736" stroke="white" stroke-miterlimit="10"/>
<path d="M359.178 383.733H373.707" stroke="white" stroke-miterlimit="10"/>
<path d="M388.236 383.733H402.764" stroke="white" stroke-miterlimit="10"/>
<path d="M417.293 383.733H431.9" stroke="white" stroke-miterlimit="10"/>
<path d="M293.721 260.034H308.25" stroke="white" stroke-miterlimit="10"/>
<path d="M322.779 260.034H337.307" stroke="white" stroke-miterlimit="10"/>
<path d="M453.693 260.034H468.221" stroke="white" stroke-miterlimit="10"/>
<path d="M424.635 260.034H439.164" stroke="white" stroke-miterlimit="10"/>
<path d="M482.75 260.034H497.279" stroke="white" stroke-miterlimit="10"/>
<path d="M300.986 107.267H315.514" stroke="white" stroke-miterlimit="10"/>
<path d="M330.043 107.267H344.65" stroke="white" stroke-miterlimit="10"/>
<path d="M359.178 107.267H373.707" stroke="white" stroke-miterlimit="10"/>
<path d="M315.514 376.387C327.55 376.387 337.307 366.627 337.307 354.586C337.307 342.545 327.55 332.784 315.514 332.784C303.478 332.784 293.721 342.545 293.721 354.586C293.721 366.627 303.478 376.387 315.514 376.387Z" stroke="white" stroke-miterlimit="10"/>
<path d="M482.75 383.655C494.786 383.655 504.543 373.894 504.543 361.853C504.543 349.812 494.786 340.052 482.75 340.052C470.714 340.052 460.957 349.812 460.957 361.853C460.957 373.894 470.714 383.655 482.75 383.655Z" stroke="white" stroke-miterlimit="10"/>
<path d="M540.943 310.905C552.979 310.905 562.736 301.144 562.736 289.103C562.736 277.062 552.979 267.302 540.943 267.302C528.907 267.302 519.15 277.062 519.15 289.103C519.15 301.144 528.907 310.905 540.943 310.905Z" stroke="white" stroke-miterlimit="10"/>
<path d="M380.971 310.905C393.007 310.905 402.764 301.144 402.764 289.103C402.764 277.062 393.007 267.302 380.971 267.302C368.936 267.302 359.178 277.062 359.178 289.103C359.178 301.144 368.936 310.905 380.971 310.905Z" stroke="white" stroke-miterlimit="10"/>
<path d="M315.514 230.887C327.55 230.887 337.307 221.127 337.307 209.086C337.307 197.045 327.55 187.284 315.514 187.284C303.478 187.284 293.721 197.045 293.721 209.086C293.721 221.127 303.478 230.887 315.514 230.887Z" stroke="white" stroke-miterlimit="10"/>
<path d="M475.486 230.887C487.522 230.887 497.279 221.127 497.279 209.086C497.279 197.045 487.522 187.284 475.486 187.284C463.45 187.284 453.693 197.045 453.693 209.086C453.693 221.127 463.45 230.887 475.486 230.887Z" stroke="white" stroke-miterlimit="10"/>
<path d="M424.635 158.137C436.671 158.137 446.428 148.377 446.428 136.336C446.428 124.295 436.671 114.534 424.635 114.534C412.6 114.534 402.843 124.295 402.843 136.336C402.843 148.377 412.6 158.137 424.635 158.137Z" stroke="white" stroke-miterlimit="10"/>
<path d="M250.057 158.137C262.093 158.137 271.85 148.377 271.85 136.336C271.85 124.295 262.093 114.534 250.057 114.534C238.021 114.534 228.264 124.295 228.264 136.336C228.264 148.377 238.021 158.137 250.057 158.137Z" stroke="white" stroke-miterlimit="10"/>
<path d="M250.057 310.905C262.093 310.905 271.85 301.144 271.85 289.103C271.85 277.062 262.093 267.302 250.057 267.302C238.021 267.302 228.264 277.062 228.264 289.103C228.264 301.144 238.021 310.905 250.057 310.905Z" stroke="white" stroke-miterlimit="10"/>
<defs>
<filter id="filter0_f_2359_2014" x="0" y="0" width="790" height="492" filterUnits="userSpaceOnUse" color-interpolation-filters="sRGB">
<feFlood flood-opacity="0" result="BackgroundImageFix"/>
<feBlend mode="normal" in="SourceGraphic" in2="BackgroundImageFix" result="shape"/>
<feGaussianBlur stdDeviation="60" result="effect1_foregroundBlur_2359_2014"/>
</filter>
<filter id="filter1_f_2359_2014" x="197" y="76" width="397" height="339" filterUnits="userSpaceOnUse" color-interpolation-filters="sRGB">
<feFlood flood-opacity="0" result="BackgroundImageFix"/>
<feBlend mode="normal" in="SourceGraphic" in2="BackgroundImageFix" result="shape"/>
<feGaussianBlur stdDeviation="12" result="effect1_foregroundBlur_2359_2014"/>
</filter>
</defs>
</svg>
