<svg width="22" height="24" viewBox="0 0 22 24" fill="none" xmlns="http://www.w3.org/2000/svg">
<g clip-path="url(#clip0_103_2906)">
<path d="M11.2083 22.9004C10.6353 23.2383 10.2399 23.4387 10.1425 23.4673C9.59814 23.3242 0.538635 18.0156 0.538635 14.4022V4.26619C3.24904 4.26619 9.19702 1.84385 10.1425 0.532471C11.0937 1.83813 17.036 4.26619 19.7464 4.26619V12.7988" stroke="white" stroke-linecap="round" stroke-linejoin="round"/>
<path d="M9.60388 17.065H6.40068C6.10844 17.065 5.86777 16.8245 5.86777 16.5325V11.201C5.86777 10.909 6.10844 10.6685 6.40068 10.6685H13.8729C14.1652 10.6685 14.4058 10.909 14.4058 11.201V12.2662" stroke="white" stroke-linecap="round" stroke-linejoin="round"/>
<path d="M12.8071 10.6687V8.00012C12.8071 6.52839 11.6152 5.33154 10.1368 5.33154C8.65838 5.33154 7.46649 6.52267 7.46649 8.00012V10.6687" stroke="white" stroke-linecap="round" stroke-linejoin="round"/>
<path d="M10.1368 13.3315V14.3967" stroke="white" stroke-linecap="round" stroke-linejoin="round"/>
<path d="M16.5432 23.4617C19.1952 23.4617 21.3451 21.3132 21.3451 18.6629C21.3451 16.0125 19.1952 13.864 16.5432 13.864C13.8912 13.864 11.7413 16.0125 11.7413 18.6629C11.7413 21.3132 13.8912 23.4617 16.5432 23.4617Z" stroke="white" stroke-linecap="round" stroke-linejoin="round"/>
<path d="M14.4058 18.6629L16.0103 20.2663L18.6749 17.0652" stroke="white" stroke-linecap="round" stroke-linejoin="round"/>
</g>
<defs>
<clipPath id="clip0_103_2906">
<rect width="21.878" height="24" fill="white"/>
</clipPath>
</defs>
</svg>
