<svg width="35" height="32" viewBox="0 0 35 32" fill="none" xmlns="http://www.w3.org/2000/svg">
<path d="M14.1871 7.80029H1.2782V13.2595H14.1871V7.80029Z" stroke="#020526" stroke-linejoin="round"/>
<path d="M14.1871 13.2593V18.7185H1.2782V13.2593" stroke="#020526" stroke-linejoin="round"/>
<path d="M14.1871 18.7188V24.1706H1.2782V18.7188" stroke="#020526" stroke-linejoin="round"/>
<path d="M25.6556 18.0298C26.8425 18.0298 27.8046 17.1145 27.8046 15.9854C27.8046 14.8563 26.8425 13.9409 25.6556 13.9409C24.4688 13.9409 23.5067 14.8563 23.5067 15.9854C23.5067 17.1145 24.4688 18.0298 25.6556 18.0298Z" stroke="#020526" stroke-miterlimit="10"/>
<path d="M34.1358 14.1608L33.2346 11.9404L31.0087 12.5706C30.6004 11.9844 30.0921 11.4861 29.5221 11.0831L30.3001 8.99467L28.0125 8.0274L26.9034 9.96927C26.2025 9.83736 25.4708 9.81538 24.739 9.91064L23.7378 7.91748L21.404 8.77483L22.0664 10.8926C21.4502 11.2809 20.9264 11.7646 20.5028 12.3068L18.3077 11.5667L17.291 13.7431L19.3321 14.7983C19.1934 15.4651 19.1703 16.1613 19.2705 16.8574L17.1754 17.81L18.0766 20.0303L20.3026 19.4001C20.7108 19.9864 21.2191 20.4847 21.7891 20.8877L21.0112 22.9761L23.2987 23.9434L24.4078 22.0015C25.1087 22.1334 25.8405 22.1554 26.5722 22.0601L27.5735 24.0533L29.9072 23.1959L29.2449 21.0782C29.861 20.6898 30.3848 20.2062 30.8084 19.6639L33.0035 20.4041L34.0202 18.2277L31.9791 17.1725C32.1178 16.5057 32.1409 15.8095 32.0408 15.1134L34.1358 14.1608Z" stroke="#020526" stroke-linejoin="round"/>
<path d="M12.0304 10.5264H9.88147" stroke="#020526" stroke-linejoin="round"/>
<path d="M12.0303 15.9854H9.88138" stroke="#020526" stroke-linejoin="round"/>
<path d="M12.0304 21.4443H9.88147" stroke="#020526" stroke-linejoin="round"/>
<path d="M10.9596 5.84368C12.0148 3.0298 14.9648 1 18.4308 1C21.6657 1 24.4462 2.64143 25.6632 5.16952" stroke="#020526" stroke-linejoin="round"/>
<path d="M26.318 2.35547L25.6556 5.07408L22.8212 4.74433" stroke="#020526" stroke-miterlimit="10"/>
<path d="M25.6558 26.2222C24.6006 29.036 21.951 30.9999 18.485 30.9999C15.2501 30.9999 12.5312 29.4317 11.3142 26.9037" stroke="#020526" stroke-linejoin="round"/>
<path d="M10.5978 29.5931L11.3141 26.9038L14.0946 27.2042" stroke="#020526" stroke-miterlimit="10"/>
</svg>
