<svg width="26" height="26" viewBox="0 0 26 26" fill="none" xmlns="http://www.w3.org/2000/svg">
<path d="M7.78188 21.8725H1V1H25V21.8725H18.2181" stroke="#020526" stroke-miterlimit="10"/>
<path d="M1 4.13281H25" stroke="#020526" stroke-miterlimit="10"/>
<path d="M2.56348 2.56396H3.61158" stroke="#020526" stroke-miterlimit="10"/>
<path d="M4.6543 2.56396H5.6968" stroke="#020526" stroke-miterlimit="10"/>
<path d="M6.73926 2.56396H7.78176" stroke="#020526" stroke-miterlimit="10"/>
<path d="M16.6094 18.7393H9.3847C9.07516 18.7393 8.82422 18.9902 8.82422 19.2997V24.4394C8.82422 24.7489 9.07516 24.9999 9.3847 24.9999H16.6094C16.9189 24.9999 17.1698 24.7489 17.1698 24.4394V19.2997C17.1698 18.9902 16.9189 18.7393 16.6094 18.7393Z" stroke="#020526" stroke-miterlimit="10"/>
<path d="M10.3933 16.1331C10.3933 14.6927 11.5591 13.5269 12.9996 13.5269C14.44 13.5269 15.6058 14.6927 15.6058 16.1331V18.7394H10.3877V16.1331H10.3933Z" stroke="#020526" stroke-miterlimit="10"/>
<path d="M8.83043 6.73926H3.6123V11.9574H8.83043V6.73926Z" stroke="#020526" stroke-miterlimit="10"/>
<path d="M11.4355 8.82422H22.393" stroke="#020526" stroke-miterlimit="10"/>
<path d="M11.4355 6.73926H22.393" stroke="#020526" stroke-miterlimit="10"/>
<path d="M11.4355 10.915H18.7387" stroke="#020526" stroke-miterlimit="10"/>
</svg>
