<svg width="24" height="26" viewBox="0 0 24 26" fill="none" xmlns="http://www.w3.org/2000/svg">
<path d="M16.83 3.13135V7.93249C16.83 8.8148 13.1893 9.53097 8.69276 9.53097C4.19619 9.53097 0.555542 8.82053 0.555542 7.93249V3.13135" stroke="white" stroke-miterlimit="10"/>
<path d="M12.9 14.103C11.6704 14.2519 10.2298 14.3321 8.69276 14.3321C4.20222 14.3321 0.555542 13.616 0.555542 12.7337V8.46533" stroke="white" stroke-miterlimit="10"/>
<path d="M16.83 8.46533V9.53671" stroke="white" stroke-miterlimit="10"/>
<path d="M10.6577 19.0876C10.0309 19.1162 9.37388 19.1334 8.69276 19.1334C4.20222 19.1334 0.555542 18.4172 0.555542 17.5349V13.2666" stroke="white" stroke-miterlimit="10"/>
<path d="M0.555542 2.59847C0.555542 1.71616 4.19619 1 8.69276 1C13.1893 1 16.83 1.71616 16.83 2.59847V3.1313C16.83 4.01361 13.1893 4.72977 8.69276 4.72977C4.19619 4.72977 0.555542 4.01934 0.555542 3.1313V2.59847Z" stroke="white" stroke-miterlimit="10"/>
<path d="M2.23669 6.8667H3.36385" stroke="white" stroke-miterlimit="10"/>
<path d="M2.23669 11.668H3.36385" stroke="white" stroke-miterlimit="10"/>
<path d="M2.23669 16.4692H3.36385" stroke="white" stroke-miterlimit="10"/>
<path d="M22.3995 17.002H12.3817C12.0488 17.002 11.779 17.2585 11.779 17.5749V24.4271C11.779 24.7435 12.0488 25 12.3817 25H22.3995C22.7324 25 23.0023 24.7435 23.0023 24.4271V17.5749C23.0023 17.2585 22.7324 17.002 22.3995 17.002Z" stroke="white" stroke-miterlimit="10"/>
<path d="M14.0209 13.2667C14.0209 11.7942 15.5278 10.6025 17.3903 10.6025C19.2528 10.6025 20.7597 11.7942 20.7597 13.2667V17.0022H14.0269V13.2667H14.0209Z" stroke="white" stroke-miterlimit="10"/>
</svg>
