<svg width="138" height="151" viewBox="0 0 138 151" fill="none" xmlns="http://www.w3.org/2000/svg">
<g clip-path="url(#clip0_2499_1593)" filter="url(#filter0_f_2499_1593)">
<path d="M91.7182 28.6479V51.4415C91.7182 55.6303 75.3437 59.0303 55.1197 59.0303C34.8957 59.0303 18.5212 55.6575 18.5212 51.4415V28.6479" stroke="#12EAFC" stroke-width="4" stroke-miterlimit="10"/>
<path d="M74.0425 80.736C68.512 81.4432 62.0328 81.824 55.1197 81.824C34.9228 81.824 18.5212 78.424 18.5212 74.2352V53.9712" stroke="#12EAFC" stroke-width="4" stroke-miterlimit="10"/>
<path d="M91.7183 53.9712V59.0576" stroke="#12EAFC" stroke-width="4" stroke-miterlimit="10"/>
<path d="M63.9576 104.4C61.1381 104.536 58.1831 104.618 55.1197 104.618C34.9228 104.618 18.5212 101.218 18.5212 97.0289V76.7649" stroke="#12EAFC" stroke-width="4" stroke-miterlimit="10"/>
<path d="M18.5212 26.1183C18.5212 21.9295 34.8957 18.5295 55.1197 18.5295C75.3437 18.5295 91.7182 21.9295 91.7182 26.1183V28.6479C91.7182 32.8367 75.3437 36.2367 55.1197 36.2367C34.8957 36.2367 18.5212 32.8639 18.5212 28.6479V26.1183Z" stroke="#12EAFC" stroke-width="4" stroke-miterlimit="10"/>
<path d="M26.085 46.3823H31.1545" stroke="#12EAFC" stroke-width="4" stroke-miterlimit="10"/>
<path d="M26.085 69.176H31.1545" stroke="#12EAFC" stroke-width="4" stroke-miterlimit="10"/>
<path d="M26.085 91.9695H31.1545" stroke="#12EAFC" stroke-width="4" stroke-miterlimit="10"/>
<path d="M116.768 94.4993H71.711C70.2138 94.4993 69 95.7171 69 97.2193V129.75C69 131.253 70.2138 132.47 71.711 132.47H116.768C118.265 132.47 119.479 131.253 119.479 129.75V97.2193C119.479 95.7171 118.265 94.4993 116.768 94.4993Z" stroke="#12EAFC" stroke-width="4" stroke-miterlimit="10"/>
<path d="M79.085 76.7647C79.085 69.7743 85.8625 64.1167 94.2394 64.1167C102.616 64.1167 109.394 69.7743 109.394 76.7647V94.4991H79.1121V76.7647H79.085Z" stroke="#12EAFC" stroke-width="4" stroke-miterlimit="10"/>
</g>
<g clip-path="url(#clip1_2499_1593)">
<path d="M91.7182 28.6479V51.4415C91.7182 55.6303 75.3437 59.0303 55.1197 59.0303C34.8957 59.0303 18.5212 55.6575 18.5212 51.4415V28.6479" stroke="#12EAFC" stroke-width="4" stroke-miterlimit="10"/>
<path d="M74.0425 80.736C68.512 81.4432 62.0328 81.824 55.1197 81.824C34.9228 81.824 18.5212 78.424 18.5212 74.2352V53.9712" stroke="#12EAFC" stroke-width="4" stroke-miterlimit="10"/>
<path d="M91.7183 53.9712V59.0576" stroke="#12EAFC" stroke-width="4" stroke-miterlimit="10"/>
<path d="M63.9576 104.4C61.1381 104.536 58.1831 104.618 55.1197 104.618C34.9228 104.618 18.5212 101.218 18.5212 97.0289V76.7649" stroke="#12EAFC" stroke-width="4" stroke-miterlimit="10"/>
<path d="M18.5212 26.1183C18.5212 21.9295 34.8957 18.5295 55.1197 18.5295C75.3437 18.5295 91.7182 21.9295 91.7182 26.1183V28.6479C91.7182 32.8367 75.3437 36.2367 55.1197 36.2367C34.8957 36.2367 18.5212 32.8639 18.5212 28.6479V26.1183Z" stroke="#12EAFC" stroke-width="4" stroke-miterlimit="10"/>
<path d="M26.085 46.3823H31.1545" stroke="#12EAFC" stroke-width="4" stroke-miterlimit="10"/>
<path d="M26.085 69.176H31.1545" stroke="#12EAFC" stroke-width="4" stroke-miterlimit="10"/>
<path d="M26.085 91.9695H31.1545" stroke="#12EAFC" stroke-width="4" stroke-miterlimit="10"/>
<path d="M116.768 94.4993H71.711C70.2138 94.4993 69 95.7171 69 97.2193V129.75C69 131.253 70.2138 132.47 71.711 132.47H116.768C118.265 132.47 119.479 131.253 119.479 129.75V97.2193C119.479 95.7171 118.265 94.4993 116.768 94.4993Z" stroke="#12EAFC" stroke-width="4" stroke-miterlimit="10"/>
<path d="M79.085 76.7647C79.085 69.7743 85.8625 64.1167 94.2394 64.1167C102.616 64.1167 109.394 69.7743 109.394 76.7647V94.4991H79.1121V76.7647H79.085Z" stroke="#12EAFC" stroke-width="4" stroke-miterlimit="10"/>
</g>
<path d="M91.7182 28.6479V51.4415C91.7182 55.6303 75.3437 59.0303 55.1197 59.0303C34.8957 59.0303 18.5212 55.6575 18.5212 51.4415V28.6479" stroke="white" stroke-miterlimit="10"/>
<path d="M74.0425 80.736C68.512 81.4432 62.0328 81.824 55.1197 81.824C34.9228 81.824 18.5212 78.424 18.5212 74.2352V53.9712" stroke="white" stroke-miterlimit="10"/>
<path d="M91.7183 53.9712V59.0576" stroke="white" stroke-miterlimit="10"/>
<path d="M63.9576 104.4C61.1381 104.536 58.1831 104.618 55.1197 104.618C34.9228 104.618 18.5212 101.218 18.5212 97.0289V76.7649" stroke="white" stroke-miterlimit="10"/>
<path d="M18.5212 26.1183C18.5212 21.9295 34.8957 18.5295 55.1197 18.5295C75.3437 18.5295 91.7182 21.9295 91.7182 26.1183V28.6479C91.7182 32.8367 75.3437 36.2367 55.1197 36.2367C34.8957 36.2367 18.5212 32.8639 18.5212 28.6479V26.1183Z" stroke="white" stroke-miterlimit="10"/>
<path d="M26.085 46.3823H31.1545" stroke="white" stroke-miterlimit="10"/>
<path d="M26.085 69.176H31.1545" stroke="white" stroke-miterlimit="10"/>
<path d="M26.085 91.9695H31.1545" stroke="white" stroke-miterlimit="10"/>
<path d="M116.768 94.4993H71.711C70.2138 94.4993 69 95.7171 69 97.2193V129.75C69 131.253 70.2138 132.47 71.711 132.47H116.768C118.265 132.47 119.479 131.253 119.479 129.75V97.2193C119.479 95.7171 118.265 94.4993 116.768 94.4993Z" stroke="white" stroke-miterlimit="10"/>
<path d="M79.085 76.7647C79.085 69.7743 85.8625 64.1167 94.2394 64.1167C102.616 64.1167 109.394 69.7743 109.394 76.7647V94.4991H79.1121V76.7647H79.085Z" stroke="white" stroke-miterlimit="10"/>
<defs>
<filter id="filter0_f_2499_1593" x="0" y="0" width="138" height="151" filterUnits="userSpaceOnUse" color-interpolation-filters="sRGB">
<feFlood flood-opacity="0" result="BackgroundImageFix"/>
<feBlend mode="normal" in="SourceGraphic" in2="BackgroundImageFix" result="shape"/>
<feGaussianBlur stdDeviation="8" result="effect1_foregroundBlur_2499_1593"/>
</filter>
<clipPath id="clip0_2499_1593">
<rect width="106" height="119" fill="white" transform="translate(16 16)"/>
</clipPath>
<clipPath id="clip1_2499_1593">
<rect width="106" height="119" fill="white" transform="translate(16 16)"/>
</clipPath>
</defs>
</svg>
