<svg width="28" height="24" viewBox="0 0 28 24" fill="none" xmlns="http://www.w3.org/2000/svg">
<g clip-path="url(#clip0_103_2715)">
<path d="M23.902 23.4155H0.582367V0.584961H26.8139V20.4854" stroke="white" stroke-miterlimit="10"/>
<path d="M1.16473 4.09961H26.8139" stroke="white" stroke-miterlimit="10"/>
<path d="M2.32946 2.33887H3.50045" stroke="white" stroke-miterlimit="10"/>
<path d="M4.66518 2.33887H5.82992" stroke="white" stroke-miterlimit="10"/>
<path d="M6.99464 2.33887H8.15937" stroke="white" stroke-miterlimit="10"/>
<path d="M19.8192 14.6313V16.9766" stroke="white" stroke-miterlimit="10"/>
<path d="M8.74174 12.2925V16.9768" stroke="white" stroke-miterlimit="10"/>
<path d="M6.41228 14.0469V16.9769" stroke="white" stroke-miterlimit="10"/>
<path d="M4.08282 10.5381V16.9767" stroke="white" stroke-miterlimit="10"/>
<path d="M17.4897 10.5381V16.9767" stroke="white" stroke-miterlimit="10"/>
<path d="M15.154 12.2925V16.9768" stroke="white" stroke-miterlimit="10"/>
<path d="M17.4898 20.485C21.0312 20.485 23.902 17.6024 23.902 14.0465C23.902 10.4906 21.0312 7.60791 17.4898 7.60791C13.9483 7.60791 11.0775 10.4906 11.0775 14.0465C11.0775 17.6024 13.9483 20.485 17.4898 20.485Z" stroke="white" stroke-miterlimit="10"/>
<path d="M22.1487 18.731L26.8139 23.4153" stroke="white" stroke-miterlimit="10"/>
</g>
<defs>
<clipPath id="clip0_103_2715">
<rect width="27.3962" height="24" fill="white"/>
</clipPath>
</defs>
</svg>
