<svg width="30" height="19" viewBox="0 0 30 19" fill="none" xmlns="http://www.w3.org/2000/svg">
<g clip-path="url(#clip0_103_2754)">
<path d="M1.30259 4.36353H2.45747C2.8283 4.36353 3.12891 4.06389 3.12891 3.69427L3.12891 1.29164C3.12891 0.922023 2.8283 0.622387 2.45747 0.622387L1.30259 0.622387C0.931767 0.622387 0.631152 0.922023 0.631152 1.29164L0.631152 3.69427C0.631152 4.06389 0.931767 4.36353 1.30259 4.36353Z" stroke="white" stroke-miterlimit="10"/>
<path d="M20.6267 4.36345V1.24472C20.6267 0.903402 20.3447 0.622314 20.0022 0.622314H18.7534C18.4109 0.622314 18.1289 0.903402 18.1289 1.24472V2.48954" stroke="white" stroke-miterlimit="10"/>
<path d="M11.8778 2.48954V1.24472C11.8778 0.903402 11.5958 0.622314 11.2534 0.622314H10.0045C9.66204 0.622314 9.38004 0.903402 9.38004 1.24472V4.35676" stroke="white" stroke-miterlimit="10"/>
<path d="M25.5752 7.47559H24.4203C24.0495 7.47559 23.7489 7.77522 23.7489 8.14484V10.5475C23.7489 10.9171 24.0495 11.2167 24.4203 11.2167H25.5752C25.946 11.2167 26.2466 10.9171 26.2466 10.5475V8.14484C26.2466 7.77522 25.946 7.47559 25.5752 7.47559Z" stroke="white" stroke-miterlimit="10"/>
<path d="M23.7489 15.5737V14.9513C23.7489 14.6099 24.0309 14.3289 24.3733 14.3289H25.6222C25.9646 14.3289 26.2466 14.6099 26.2466 14.9513V17.4409C26.2466 17.7822 25.9646 18.0633 25.6222 18.0633H24.9978" stroke="white" stroke-miterlimit="10"/>
<path d="M6.25112 0V4.98595" stroke="white" stroke-miterlimit="10"/>
<path d="M15 0V2.48963" stroke="white" stroke-miterlimit="10"/>
<path d="M29.3756 6.85327V11.8392" stroke="white" stroke-miterlimit="10"/>
<path d="M29.3756 13.7063V18.6923" stroke="white" stroke-miterlimit="10"/>
<path d="M27.5492 4.36353H28.7041C29.0749 4.36353 29.3756 4.06389 29.3756 3.69427V1.29164C29.3756 0.922023 29.0749 0.622387 28.7041 0.622387L27.5492 0.622387C27.1784 0.622387 26.8778 0.922023 26.8778 1.29164V3.69427C26.8778 4.06389 27.1784 4.36353 27.5492 4.36353Z" stroke="white" stroke-miterlimit="10"/>
<path d="M23.7489 0V4.98595" stroke="white" stroke-miterlimit="10"/>
<path d="M4.41809 11.2168H5.57297C5.94379 11.2168 6.24441 10.9172 6.24441 10.5475V8.14491C6.24441 7.77529 5.94379 7.47566 5.57297 7.47566H4.41809C4.04726 7.47566 3.74665 7.77529 3.74665 8.14491L3.74665 10.5475C3.74665 10.9172 4.04726 11.2168 4.41809 11.2168Z" stroke="white" stroke-miterlimit="10"/>
<path d="M0.624443 6.85327V11.8392" stroke="white" stroke-miterlimit="10"/>
<path d="M2.45076 14.3289H1.29588C0.925058 14.3289 0.624443 14.6285 0.624443 14.9981V17.4007C0.624443 17.7704 0.925058 18.07 1.29588 18.07H2.45076C2.82159 18.07 3.1222 17.7704 3.1222 17.4007V14.9981C3.1222 14.6285 2.82159 14.3289 2.45076 14.3289Z" stroke="white" stroke-miterlimit="10"/>
<path d="M20.6267 16.825V17.4475C20.6267 17.7888 20.3447 18.0699 20.0022 18.0699H18.7534C18.4109 18.0699 18.1289 17.7888 18.1289 17.4475V16.2026" stroke="white" stroke-miterlimit="10"/>
<path d="M15 16.196V17.4409C15 17.7822 14.718 18.0633 14.3756 18.0633H13.1267C12.7842 18.0633 12.5022 17.7822 12.5022 17.4409V16.196" stroke="white" stroke-miterlimit="10"/>
<path d="M6.25112 13.7063V18.6923" stroke="white" stroke-miterlimit="10"/>
<path d="M9.37332 14.3289V18.6924" stroke="white" stroke-miterlimit="10"/>
<path d="M15 14.9511C18.1075 14.9511 20.6267 12.4401 20.6267 9.34274C20.6267 6.24532 18.1075 3.73438 15 3.73438C11.8925 3.73438 9.37332 6.24532 9.37332 9.34274C9.37332 12.4401 11.8925 14.9511 15 14.9511Z" stroke="white" stroke-miterlimit="10"/>
<path d="M16.8263 7.47559H15.6714C15.3006 7.47559 15 7.77522 15 8.14484V10.5475C15 10.9171 15.3006 11.2167 15.6714 11.2167H16.8263C17.1971 11.2167 17.4978 10.9171 17.4978 10.5475V8.14484C17.4978 7.77522 17.1971 7.47559 16.8263 7.47559Z" stroke="white" stroke-miterlimit="10"/>
<path d="M12.5022 6.85327V11.8392" stroke="white" stroke-miterlimit="10"/>
<path d="M18.7534 13.084L23.7489 18.0699" stroke="white" stroke-miterlimit="10"/>
</g>
<defs>
<clipPath id="clip0_103_2754">
<rect width="30" height="18.6923" fill="white"/>
</clipPath>
</defs>
</svg>
