<svg width="30" height="30" viewBox="0 0 30 30" fill="none" xmlns="http://www.w3.org/2000/svg">
<g clip-path="url(#clip0_103_1533)">
<path d="M3.47501 10.4321C4.7291 7.25838 7.25829 4.72918 10.432 3.4751" stroke="#020526" stroke-miterlimit="10"/>
<path d="M15 29.3484C16.0795 29.3484 16.9547 28.4732 16.9547 27.3937C16.9547 26.3141 16.0795 25.439 15 25.439C13.9204 25.439 13.0453 26.3141 13.0453 27.3937C13.0453 28.4732 13.9204 29.3484 15 29.3484Z" stroke="#020526" stroke-miterlimit="10"/>
<path d="M15 4.56076C16.0795 4.56076 16.9547 3.68561 16.9547 2.60606C16.9547 1.52651 16.0795 0.651367 15 0.651367C13.9204 0.651367 13.0453 1.52651 13.0453 2.60606C13.0453 3.68561 13.9204 4.56076 15 4.56076Z" stroke="#020526" stroke-miterlimit="10"/>
<path d="M27.3937 16.9548C28.4733 16.9548 29.3484 16.0797 29.3484 15.0001C29.3484 13.9206 28.4733 13.0454 27.3937 13.0454C26.3142 13.0454 25.439 13.9206 25.439 15.0001C25.439 16.0797 26.3142 16.9548 27.3937 16.9548Z" stroke="#020526" stroke-miterlimit="10"/>
<path d="M2.60626 16.9548C3.68581 16.9548 4.56095 16.0797 4.56095 15.0001C4.56095 13.9206 3.68581 13.0454 2.60626 13.0454C1.52671 13.0454 0.651566 13.9206 0.651566 15.0001C0.651566 16.0797 1.52671 16.9548 2.60626 16.9548Z" stroke="#020526" stroke-miterlimit="10"/>
<path d="M7.13919 2.76025L10.432 3.47487L9.71743 6.76773" stroke="#020526" stroke-miterlimit="10"/>
<path d="M26.7422 19.7222C25.4881 22.8959 22.9589 25.4251 19.7851 26.6792" stroke="#020526" stroke-miterlimit="10"/>
<path d="M23.078 27.3937L19.7851 26.6791L20.4998 23.3862" stroke="#020526" stroke-miterlimit="10"/>
<path d="M10.4671 26.707C7.29332 25.4529 4.76413 22.9238 3.51004 19.75" stroke="#020526" stroke-miterlimit="10"/>
<path d="M2.79543 23.0429L3.51004 19.75L6.8029 20.4646" stroke="#020526" stroke-miterlimit="10"/>
<path d="M19.7501 3.44678C22.9239 4.70086 25.4531 7.23006 26.7071 10.4038" stroke="#020526" stroke-miterlimit="10"/>
<path d="M27.4218 7.11133L26.7071 10.4042L23.4143 9.68956" stroke="#020526" stroke-miterlimit="10"/>
<path d="M16.9897 14.9858C16.9897 16.0717 16.107 16.9545 15.021 16.9545C13.9351 16.9545 13.0523 16.0717 13.0523 14.9858C13.0523 13.8999 13.9351 13.0171 15.021 13.0171C16.107 13.0171 16.9897 13.8999 16.9897 14.9858Z" stroke="#020526" stroke-linejoin="round"/>
<path d="M19.582 14.986C19.582 14.6217 19.5329 14.2714 19.4559 13.9351L20.738 13.1924L19.4348 10.9365L18.1527 11.6721C17.6343 11.1817 17.0037 10.8104 16.3031 10.6072V9.12891H13.6969V10.6142C13.0033 10.8244 12.3797 11.1957 11.8683 11.6861L10.5722 10.9365L9.26904 13.1924L10.5792 13.9491C10.5021 14.2854 10.4601 14.6287 10.4601 14.986C10.4601 15.3433 10.5091 15.7076 10.5862 16.0509L9.26904 16.8076L10.5722 19.0635L11.8893 18.2999C12.3937 18.7763 13.0103 19.1476 13.6969 19.3508V20.8641H16.3031V19.3578C16.9967 19.1546 17.6203 18.7903 18.1317 18.3069L19.4278 19.0565L20.731 16.8006L19.4419 16.0579C19.5259 15.7146 19.575 15.3503 19.575 14.979L19.582 14.986Z" stroke="#020526" stroke-linejoin="round"/>
</g>
<defs>
<clipPath id="clip0_103_1533">
<rect width="30" height="30" fill="white"/>
</clipPath>
</defs>
</svg>
