<svg width="21" height="24" viewBox="0 0 21 24" fill="none" xmlns="http://www.w3.org/2000/svg">
<g clip-path="url(#clip0_103_1625)">
<path d="M6.99819 16.0017C7.82577 16.0017 8.49666 15.3307 8.49666 14.5031C8.49666 13.6754 7.82577 13.0044 6.99819 13.0044C6.17061 13.0044 5.49973 13.6754 5.49973 14.5031C5.49973 15.3307 6.17061 16.0017 6.99819 16.0017Z" stroke="#020526" stroke-linejoin="round"/>
<path d="M4.50077 8.503H3.83478L2.91637 7.66504" stroke="#020526" stroke-linejoin="round"/>
<path d="M14.4783 9.00023H15.0589L15.8922 8.55873H18.9783V5.02197" stroke="#020526" stroke-linejoin="round"/>
<path d="M20.1138 13.2088L18.8302 14.498H16.9987V13.5741L15.5432 11.9948H11.499V11.2428C11.499 10.3243 12.5785 9.4917 13.4969 9.4917V3.50244" stroke="#020526" stroke-linejoin="round"/>
<path d="M10.0005 13.4985V16.0017H11.5258L12.4979 17.2694V20.503H14.0931L15.5002 18.811V14.9166L13.8353 13.4985H11.499" stroke="#020526" stroke-linejoin="round"/>
<path d="M19.2491 9.65796C20.044 11.0922 20.5005 12.247 20.5005 14.0035C20.5005 19.5255 16.0213 23.5058 10.5 23.5058C4.9788 23.5058 0.499512 19.5255 0.499512 14.0035C0.499512 10.8451 1.96575 8.52993 4.24836 6.69824" stroke="#020526" stroke-linejoin="round"/>
<path d="M14.6678 5.40918C15.4143 5.75296 16.1179 6.18805 16.7517 6.69835" stroke="#020526" stroke-linejoin="round"/>
<path d="M7.99716 4.81301C8.79742 4.6089 9.63527 4.49609 10.4946 4.49609C11.0639 4.49609 11.6171 4.54444 12.1596 4.63575" stroke="#020526" stroke-linejoin="round"/>
<path d="M0.918396 12.8327L2.58336 14.4979H4.00126V12.8327L5.49973 11.001H6.4987V9.50236C6.4987 8.80943 6.18719 8.50326 5.49973 8.50326V4.50146" stroke="#020526" stroke-linejoin="round"/>
<path d="M10.0005 13.4987L9.97826 9" stroke="#020526" stroke-linejoin="round"/>
<path d="M5.62328 22.2544L6.49872 21.4165V20.745L6.99821 20.2508V16.002" stroke="#020526" stroke-linejoin="round"/>
<path d="M5.00025 16.5015H4.50076C3.94757 16.5015 3.50179 16.9473 3.50179 17.5006V21.0028" stroke="#020526" stroke-linejoin="round"/>
<path d="M10.0005 8.99731C10.8281 8.99731 11.4989 8.32634 11.4989 7.49866C11.4989 6.67097 10.8281 6 10.0005 6C9.1729 6 8.50201 6.67097 8.50201 7.49866C8.50201 8.32634 9.1729 8.99731 10.0005 8.99731Z" stroke="#020526" stroke-linejoin="round"/>
<path d="M5.49972 4.50122C6.3273 4.50122 6.99818 3.83025 6.99818 3.00256C6.99818 2.17488 6.3273 1.50391 5.49972 1.50391C4.67214 1.50391 4.00125 2.17488 4.00125 3.00256C4.00125 3.83025 4.67214 4.50122 5.49972 4.50122Z" stroke="#020526" stroke-linejoin="round"/>
<path d="M13.4969 3.49683C14.3245 3.49683 14.9954 2.82585 14.9954 1.99817C14.9954 1.17048 14.3245 0.499512 13.4969 0.499512C12.6694 0.499512 11.9985 1.17048 11.9985 1.99817C11.9985 2.82585 12.6694 3.49683 13.4969 3.49683Z" stroke="#020526" stroke-linejoin="round"/>
<path d="M18.9967 5.00073C19.8242 5.00073 20.4951 4.32976 20.4951 3.50207C20.4951 2.67439 19.8242 2.00342 18.9967 2.00342C18.1691 2.00342 17.4982 2.67439 17.4982 3.50207C17.4982 4.32976 18.1691 5.00073 18.9967 5.00073Z" stroke="#020526" stroke-linejoin="round"/>
</g>
<defs>
<clipPath id="clip0_103_1625">
<rect width="21" height="24" fill="white"/>
</clipPath>
</defs>
</svg>
