<svg width="790" height="492" viewBox="0 0 790 492" fill="none" xmlns="http://www.w3.org/2000/svg">
<g filter="url(#filter0_f_2341_1088)">
<ellipse cx="395" cy="246" rx="275" ry="126" fill="#12EAFC" fill-opacity="0.2"/>
</g>
<g filter="url(#filter1_f_2341_1088)">
<path d="M330.306 288.361C342.995 288.361 353.282 278.072 353.282 265.381C353.282 252.69 342.995 242.402 330.306 242.402C317.616 242.402 307.329 252.69 307.329 265.381C307.329 278.072 317.616 288.361 330.306 288.361Z" stroke="#05C6F1" stroke-width="6" stroke-linejoin="round"/>
<path d="M292.012 173.381H281.8L267.718 160.533" stroke="#05C6F1" stroke-width="6" stroke-linejoin="round"/>
<path d="M445 181H453.903L466.681 173.897H514V117" stroke="#05C6F1" stroke-width="6" stroke-linejoin="round"/>
<path d="M531.412 245.532L511.729 265.299H483.647V251.132L461.329 226.918H399.318V215.387C399.318 201.303 415.871 188.536 429.953 188.536V96.7009" stroke="#05C6F1" stroke-width="6" stroke-linejoin="round"/>
<path d="M376.341 249.979V288.361H399.73L414.635 307.799V357.381H439.094L460.671 331.437V271.723L435.141 249.979H399.318" stroke="#05C6F1" stroke-width="6" stroke-linejoin="round"/>
<path d="M518.153 191.09C530.341 213.081 537.341 230.789 537.341 257.722C537.341 342.391 468.659 403.423 384 403.423C299.341 403.423 230.659 342.391 230.659 257.722C230.659 209.292 253.141 173.793 288.141 145.707" stroke="#05C6F1" stroke-width="6" stroke-linejoin="round"/>
<path d="M447.906 125.94C459.353 131.211 470.141 137.883 479.859 145.707" stroke="#05C6F1" stroke-width="6" stroke-linejoin="round"/>
<path d="M345.624 116.798C357.894 113.668 370.741 111.938 383.918 111.938C392.647 111.938 401.129 112.68 409.447 114.08" stroke="#05C6F1" stroke-width="6" stroke-linejoin="round"/>
<path d="M237.082 239.766L262.612 265.299H284.353V239.766L307.329 211.68H322.647V188.701C322.647 178.076 317.871 173.381 307.329 173.381V112.021" stroke="#05C6F1" stroke-width="6" stroke-linejoin="round"/>
<path d="M376.341 249.979L376 181" stroke="#05C6F1" stroke-width="6" stroke-linejoin="round"/>
<path d="M309.224 384.232L322.647 371.383V361.088L330.306 353.51V288.361" stroke="#05C6F1" stroke-width="6" stroke-linejoin="round"/>
<path d="M299.671 296.021H292.012C283.529 296.021 276.694 302.857 276.694 311.34V365.041" stroke="#05C6F1" stroke-width="6" stroke-linejoin="round"/>
<path d="M376.341 180.959C389.031 180.959 399.318 170.671 399.318 157.979C399.318 145.288 389.031 135 376.341 135C363.652 135 353.365 145.288 353.365 157.979C353.365 170.671 363.652 180.959 376.341 180.959Z" stroke="#05C6F1" stroke-width="6" stroke-linejoin="round"/>
<path d="M307.329 112.021C320.019 112.021 330.306 101.732 330.306 89.0412C330.306 76.35 320.019 66.0618 307.329 66.0618C294.64 66.0618 284.353 76.35 284.353 89.0412C284.353 101.732 294.64 112.021 307.329 112.021Z" stroke="#05C6F1" stroke-width="6" stroke-linejoin="round"/>
<path d="M429.953 96.6187C442.643 96.6187 452.93 86.3305 452.93 73.6393C452.93 60.9481 442.643 50.6599 429.953 50.6599C417.263 50.6599 406.977 60.9481 406.977 73.6393C406.977 86.3305 417.263 96.6187 429.953 96.6187Z" stroke="#05C6F1" stroke-width="6" stroke-linejoin="round"/>
<path d="M514.282 119.681C526.972 119.681 537.259 109.392 537.259 96.7011C537.259 84.0099 526.972 73.7217 514.282 73.7217C501.593 73.7217 491.306 84.0099 491.306 96.7011C491.306 109.392 501.593 119.681 514.282 119.681Z" stroke="#05C6F1" stroke-width="6" stroke-linejoin="round"/>
</g>
<path d="M330.306 288.361C342.995 288.361 353.282 278.072 353.282 265.381C353.282 252.69 342.995 242.402 330.306 242.402C317.616 242.402 307.329 252.69 307.329 265.381C307.329 278.072 317.616 288.361 330.306 288.361Z" stroke="#12EAFC" stroke-width="4" stroke-linejoin="round"/>
<path d="M292.012 173.381H281.8L267.718 160.533" stroke="#12EAFC" stroke-width="4" stroke-linejoin="round"/>
<path d="M445 181H453.903L466.681 173.897H514V117" stroke="#12EAFC" stroke-width="4" stroke-linejoin="round"/>
<path d="M531.412 245.532L511.729 265.299H483.647V251.132L461.329 226.918H399.318V215.387C399.318 201.303 415.871 188.536 429.953 188.536V96.7009" stroke="#12EAFC" stroke-width="4" stroke-linejoin="round"/>
<path d="M376.341 249.979V288.361H399.73L414.635 307.799V357.381H439.094L460.671 331.437V271.723L435.141 249.979H399.318" stroke="#12EAFC" stroke-width="4" stroke-linejoin="round"/>
<path d="M518.153 191.09C530.341 213.081 537.341 230.789 537.341 257.722C537.341 342.391 468.659 403.423 384 403.423C299.341 403.423 230.659 342.391 230.659 257.722C230.659 209.292 253.141 173.793 288.141 145.707" stroke="#12EAFC" stroke-width="4" stroke-linejoin="round"/>
<path d="M447.906 125.94C459.353 131.211 470.141 137.883 479.859 145.707" stroke="#12EAFC" stroke-width="4" stroke-linejoin="round"/>
<path d="M345.624 116.798C357.894 113.668 370.741 111.938 383.918 111.938C392.647 111.938 401.129 112.68 409.447 114.08" stroke="#12EAFC" stroke-width="4" stroke-linejoin="round"/>
<path d="M237.082 239.766L262.612 265.299H284.353V239.766L307.329 211.68H322.647V188.701C322.647 178.076 317.871 173.381 307.329 173.381V112.021" stroke="#12EAFC" stroke-width="4" stroke-linejoin="round"/>
<path d="M376.341 249.979L376 181" stroke="#12EAFC" stroke-width="4" stroke-linejoin="round"/>
<path d="M309.224 384.232L322.647 371.383V361.088L330.306 353.51V288.361" stroke="#12EAFC" stroke-width="4" stroke-linejoin="round"/>
<path d="M299.671 296.021H292.012C283.529 296.021 276.694 302.857 276.694 311.34V365.041" stroke="#12EAFC" stroke-width="4" stroke-linejoin="round"/>
<path d="M376.341 180.959C389.031 180.959 399.318 170.671 399.318 157.979C399.318 145.288 389.031 135 376.341 135C363.652 135 353.365 145.288 353.365 157.979C353.365 170.671 363.652 180.959 376.341 180.959Z" stroke="#12EAFC" stroke-width="4" stroke-linejoin="round"/>
<path d="M307.329 112.021C320.019 112.021 330.306 101.732 330.306 89.0412C330.306 76.35 320.019 66.0618 307.329 66.0618C294.64 66.0618 284.353 76.35 284.353 89.0412C284.353 101.732 294.64 112.021 307.329 112.021Z" stroke="#12EAFC" stroke-width="4" stroke-linejoin="round"/>
<path d="M429.953 96.6187C442.643 96.6187 452.93 86.3305 452.93 73.6393C452.93 60.9481 442.643 50.6599 429.953 50.6599C417.263 50.6599 406.977 60.9481 406.977 73.6393C406.977 86.3305 417.263 96.6187 429.953 96.6187Z" stroke="#12EAFC" stroke-width="4" stroke-linejoin="round"/>
<path d="M514.282 119.681C526.972 119.681 537.259 109.392 537.259 96.7011C537.259 84.0099 526.972 73.7217 514.282 73.7217C501.593 73.7217 491.306 84.0099 491.306 96.7011C491.306 109.392 501.593 119.681 514.282 119.681Z" stroke="#12EAFC" stroke-width="4" stroke-linejoin="round"/>
<path d="M330.306 288.361C342.995 288.361 353.282 278.072 353.282 265.381C353.282 252.69 342.995 242.402 330.306 242.402C317.616 242.402 307.329 252.69 307.329 265.381C307.329 278.072 317.616 288.361 330.306 288.361Z" stroke="white" stroke-linejoin="round"/>
<path d="M292.012 173.381H281.8L267.718 160.533" stroke="white" stroke-linejoin="round"/>
<path d="M445 181H453.903L466.681 174.23H514V120" stroke="white" stroke-linejoin="round"/>
<path d="M531.412 245.532L511.729 265.299H483.647V251.132L461.329 226.918H399.318V215.387C399.318 201.303 415.871 188.536 429.953 188.536V96.7009" stroke="white" stroke-linejoin="round"/>
<path d="M376.341 249.979V288.361H399.73L414.635 307.799V357.381H439.094L460.671 331.437V271.723L435.141 249.979H399.318" stroke="white" stroke-linejoin="round"/>
<path d="M518.153 191.09C530.341 213.081 537.341 230.789 537.341 257.722C537.341 342.391 468.659 403.423 384 403.423C299.341 403.423 230.659 342.391 230.659 257.722C230.659 209.292 253.141 173.793 288.141 145.707" stroke="white" stroke-linejoin="round"/>
<path d="M447.906 125.94C459.353 131.211 470.141 137.883 479.859 145.707" stroke="white" stroke-linejoin="round"/>
<path d="M345.624 116.798C357.894 113.668 370.741 111.938 383.918 111.938C392.647 111.938 401.129 112.68 409.447 114.08" stroke="white" stroke-linejoin="round"/>
<path d="M237.082 239.766L262.612 265.299H284.353V239.766L307.329 211.68H322.647V188.701C322.647 178.076 317.871 173.381 307.329 173.381V112.021" stroke="white" stroke-linejoin="round"/>
<path d="M376.341 249.979L376 181" stroke="white" stroke-linejoin="round"/>
<path d="M309.224 384.232L322.647 371.383V361.088L330.306 353.51V288.361" stroke="white" stroke-linejoin="round"/>
<path d="M299.671 296.021H292.012C283.529 296.021 276.694 302.857 276.694 311.34V365.041" stroke="white" stroke-linejoin="round"/>
<path d="M376.341 180.959C389.031 180.959 399.318 170.671 399.318 157.979C399.318 145.288 389.031 135 376.341 135C363.652 135 353.365 145.288 353.365 157.979C353.365 170.671 363.652 180.959 376.341 180.959Z" stroke="white" stroke-linejoin="round"/>
<path d="M307.329 112.021C320.019 112.021 330.306 101.732 330.306 89.0412C330.306 76.35 320.019 66.0618 307.329 66.0618C294.64 66.0618 284.353 76.35 284.353 89.0412C284.353 101.732 294.64 112.021 307.329 112.021Z" stroke="white" stroke-linejoin="round"/>
<path d="M429.953 96.6187C442.643 96.6187 452.93 86.3305 452.93 73.6393C452.93 60.9481 442.643 50.6599 429.953 50.6599C417.263 50.6599 406.977 60.9481 406.977 73.6393C406.977 86.3305 417.263 96.6187 429.953 96.6187Z" stroke="white" stroke-linejoin="round"/>
<path d="M514.282 119.681C526.972 119.681 537.259 109.392 537.259 96.7011C537.259 84.0099 526.972 73.7217 514.282 73.7217C501.593 73.7217 491.306 84.0099 491.306 96.7011C491.306 109.392 501.593 119.681 514.282 119.681Z" stroke="white" stroke-linejoin="round"/>
<defs>
<filter id="filter0_f_2341_1088" x="0" y="0" width="790" height="492" filterUnits="userSpaceOnUse" color-interpolation-filters="sRGB">
<feFlood flood-opacity="0" result="BackgroundImageFix"/>
<feBlend mode="normal" in="SourceGraphic" in2="BackgroundImageFix" result="shape"/>
<feGaussianBlur stdDeviation="60" result="effect1_foregroundBlur_2341_1088"/>
</filter>
<filter id="filter1_f_2341_1088" x="207" y="27" width="354" height="400" filterUnits="userSpaceOnUse" color-interpolation-filters="sRGB">
<feFlood flood-opacity="0" result="BackgroundImageFix"/>
<feBlend mode="normal" in="SourceGraphic" in2="BackgroundImageFix" result="shape"/>
<feGaussianBlur stdDeviation="8" result="effect1_foregroundBlur_2341_1088"/>
</filter>
</defs>
</svg>
