<svg width="28" height="31" viewBox="0 0 28 31" fill="none" xmlns="http://www.w3.org/2000/svg">
<path d="M14.2744 1C15.5451 2.65135 23.4835 5.72228 27.1043 5.72228V18.5347C27.1043 23.1049 14.994 29.8262 14.2744 30C13.5472 29.8189 1.44446 23.1049 1.44446 18.5347V5.72228C5.06532 5.72228 13.0113 2.65859 14.2744 1Z" stroke="white" stroke-linecap="round" stroke-linejoin="round"/>
<path d="M19.2122 13.1387H9.33713C8.91435 13.1387 8.57162 13.4629 8.57162 13.8629V21.1854C8.57162 21.5854 8.91435 21.9096 9.33713 21.9096H19.2122C19.635 21.9096 19.9777 21.5854 19.9777 21.1854V13.8629C19.9777 13.4629 19.635 13.1387 19.2122 13.1387Z" stroke="white" stroke-miterlimit="10"/>
<path d="M10.7147 9.77112C10.7147 7.90973 12.307 6.396 14.282 6.396C16.257 6.396 17.8492 7.90249 17.8492 9.77112V13.1462H10.7223V9.77112H10.7147Z" stroke="white" stroke-miterlimit="10"/>
<path d="M14.2741 16.5142V18.5349" stroke="white" stroke-miterlimit="10" stroke-linecap="round"/>
</svg>
