<svg width="25" height="32" viewBox="0 0 25 32" fill="none" xmlns="http://www.w3.org/2000/svg">
<path d="M22.7481 1H1.32934C0.901983 1 0.555542 1.32904 0.555542 1.73493V30.2651C0.555542 30.671 0.901983 31 1.32934 31H22.7481C23.1754 31 23.5219 30.671 23.5219 30.2651V1.73493C23.5219 1.32904 23.1754 1 22.7481 1Z" stroke="#020526" stroke-miterlimit="10" stroke-linecap="round"/>
<path d="M12.0388 19.4028C15.6072 19.4028 18.5 16.6553 18.5 13.2661C18.5 9.87689 15.6072 7.12939 12.0388 7.12939C8.47036 7.12939 5.57758 9.87689 5.57758 13.2661C5.57758 16.6553 8.47036 19.4028 12.0388 19.4028Z" stroke="#020526" stroke-miterlimit="10" stroke-linecap="round"/>
<path d="M12.0387 19.4028C13.6242 19.4028 14.9095 16.6553 14.9095 13.2661C14.9095 9.87689 13.6242 7.12939 12.0387 7.12939C10.4532 7.12939 9.16791 9.87689 9.16791 13.2661C9.16791 16.6553 10.4532 19.4028 12.0387 19.4028Z" stroke="#020526" stroke-miterlimit="10" stroke-linecap="round"/>
<path d="M5.57758 13.2661H18.5" stroke="#020526" stroke-miterlimit="10" stroke-linecap="round"/>
<path d="M7.72888 24.1797H16.349" stroke="#020526" stroke-miterlimit="10" stroke-linecap="round"/>
</svg>
