<svg width="89" height="68" viewBox="0 0 89 68" fill="none" xmlns="http://www.w3.org/2000/svg">
<path d="M35.6069 67L35.3724 66.8756L33.4552 63.4214L33.3724 63.2832L33.331 63.4352L32.6 66.8618L32.4069 67H31.1241L31 66.8618L32.6552 59.152L32.8483 59H34.131L34.2552 59.152L33.5793 62.2884L33.6621 62.3299L37.0552 59.1105L37.3034 59H38.9724L39 59.1105L35.1517 62.6615L35.1103 62.8964L37.4552 66.8756L37.3862 67H35.6069Z" fill="white"/>
<path d="M44.4 67L44.2191 66.848L43.9687 65.3143L43.7878 65.1623H40.8383L40.6017 65.2867L39.6557 66.8618L39.4191 66.9862H38.0696L38 66.8618L42.7026 59.1244L42.9391 59H44.4557L44.6226 59.152L46 66.848L45.8887 67H44.4ZM43.3565 60.7548L43.3287 60.6028L43.2313 60.7271L41.52 63.7668L41.5896 63.905H43.6348L43.7739 63.753L43.3704 60.7548H43.3565Z" fill="white"/>
<path d="M54.8162 67L54.6871 66.8618L56.0926 60.5475L56.1213 60.4093L56.0352 60.5337L52.4785 66.8618L52.249 67H50.9726L50.8005 66.848L50.0691 60.5475L50.0404 60.4231L49.9974 60.5751L48.5919 66.8618L48.4055 67H47.1434L47 66.8618L48.7353 59.152L48.9218 59H51.2594L51.4316 59.152L52.0052 64.9136L52.0482 65.0656L52.1343 64.9275L55.3038 59.1382L55.5332 59H57.8709L58 59.152L56.279 66.8618L56.0782 67H54.8162Z" fill="white"/>
<path d="M65.8222 67L65.6928 66.8618L67.102 60.5475L67.1163 60.4093L67.0444 60.5337L63.4784 66.8618L63.2484 67H61.9686L61.7961 66.848L61.0771 60.5475L61.034 60.4231L60.9765 60.5751L59.5817 66.8618L59.3948 67H58.1294L58 66.8618L59.7255 59.152L59.9124 59H62.2562L62.4288 59.152L63.0039 64.9136L63.0327 65.0656L63.119 64.9275L66.3111 59.1382L66.5412 59H68.885L69 59.152L67.2889 66.8618L67.0876 67H65.8222Z" fill="white"/>
<path d="M74.3972 66.9862L74.23 66.8342L73.9791 65.3005L73.8118 65.1485H70.8432L70.6202 65.2867L69.6725 66.8618L69.4495 66.9862H68.0697L68 66.8618L72.7108 59.1243L72.9477 59H74.453L74.6202 59.152L76 66.848L75.8746 67H74.3833L74.3972 66.9862ZM73.3519 60.7409L73.324 60.5889L73.2404 60.7133L71.5122 63.753L71.5819 63.8912H73.6167L73.7561 63.7392L73.3519 60.7409Z" fill="white"/>
<path d="M80.0423 67C77.8849 67 76.609 65.7425 77.1077 63.1338C77.5949 60.485 79.2768 59 81.5385 59C81.9909 59 82.5476 59.0936 83 59.3077L82.6868 60.485L82.536 60.5786C82.536 60.5786 81.7589 60.204 81.2718 60.204C79.8915 60.204 78.8012 61.4214 78.5112 63.0134C78.2212 64.592 78.8476 65.7692 80.2627 65.7692C80.7962 65.7692 81.4341 65.6355 81.7937 65.4482L81.6081 66.7458C81.0978 66.8796 80.541 66.9866 80.0423 66.9866" fill="white"/>
<path d="M35.7231 52.4558L34.0999 53.83H78.5775L56.4114 34.918L55.2807 35.8641L74.7264 52.4558H35.7231Z" fill="white"/>
<path d="M63.1173 29.5565L62.0762 30.4351L83.8056 48.446V12.4016L81.533 14.2939V44.8303L63.1173 29.5565Z" fill="white"/>
<path d="M0 0V39.1082H38.5219V7.64817H51.3625V0H0Z" fill="white"/>
<path d="M55.0457 27.8105L86.8058 0H83.2346L55.0457 24.6791V27.8105Z" fill="white"/>
<path d="M55.0456 0H54.4858H53.9261H53.5902H53.0305H52.4819V8.21136V8.77456V25.4338L53.9261 24.1723L54.4858 23.6767L55.0456 23.1923L81.5329 0H55.0456Z" fill="white"/>
<path d="M62.0762 27.2247L63.1173 28.1033L63.5651 28.4638L64.0017 28.8242L80.4135 42.4422V15.2175V14.4853V13.7644V12.0298L62.0762 27.2247Z" fill="white"/>
<path d="M54.4188 36.6076L53.9822 36.2359L53.5456 35.8642L51.9223 34.4788L32.0513 51.3295H35.3202H36.1822H37.0554H71.6703L54.4188 36.6076Z" fill="white"/>
</svg>
