<svg width="25" height="27" viewBox="0 0 25 27" fill="none" xmlns="http://www.w3.org/2000/svg">
<path d="M15.188 22.7595V21.6619C15.188 19.7688 16.274 19.2636 17.7317 17.8466C19.0442 16.5749 20.1186 14.6179 20.1186 12.1266C20.1186 8.17192 16.5644 4.97217 12.4875 4.97217C8.41055 4.97217 4.85632 8.17192 4.85632 12.1266C4.85632 14.6237 5.93072 16.5749 7.24323 17.8466C8.70093 19.2578 9.78694 19.7688 9.78694 21.6619V22.7595" stroke="#020526" stroke-miterlimit="10"/>
<path d="M9.24097 23.8398H15.728" stroke="#020526" stroke-miterlimit="10"/>
<path d="M15.1879 25.46H14.1076L13.5675 26H12.4873H11.4071L10.867 25.46H9.78101" stroke="#020526" stroke-miterlimit="10"/>
<path d="M10.8671 22.2197H14.1077" stroke="#020526" stroke-miterlimit="10"/>
<path d="M9.96695 3.09056L9.40942 1" stroke="#020526" stroke-miterlimit="10"/>
<path d="M5.60539 5.60541L4.078 4.07812" stroke="#020526" stroke-miterlimit="10"/>
<path d="M3.08491 9.96619L1 9.40869" stroke="#020526" stroke-miterlimit="10"/>
<path d="M3.08491 15.0068L1 15.5643" stroke="#020526" stroke-miterlimit="10"/>
<path d="M5.60539 19.3682L4.078 20.8954" stroke="#020526" stroke-miterlimit="10"/>
<path d="M19.3693 19.3682L20.8966 20.8954" stroke="#020526" stroke-miterlimit="10"/>
<path d="M21.8839 15.0068L23.9746 15.5643" stroke="#020526" stroke-miterlimit="10"/>
<path d="M21.8839 9.96619L23.9746 9.40869" stroke="#020526" stroke-miterlimit="10"/>
<path d="M19.3693 5.60541L20.8966 4.07812" stroke="#020526" stroke-miterlimit="10"/>
<path d="M15.0021 3.09056L15.5654 1" stroke="#020526" stroke-miterlimit="10"/>
<path d="M9.78102 10.3262L7.62061 12.4864L9.78102 14.6467" stroke="#020526" stroke-miterlimit="10"/>
<path d="M15.1879 10.3262L17.3541 12.4864L15.1879 14.6467" stroke="#020526" stroke-miterlimit="10"/>
<path d="M13.5676 8.7002L11.4072 16.2727" stroke="#020526" stroke-miterlimit="10"/>
</svg>
