<svg width="25" height="27" viewBox="0 0 25 27" fill="none" xmlns="http://www.w3.org/2000/svg">
<path d="M15.1879 22.7595V21.6619C15.1879 19.7688 16.2739 19.2636 17.7316 17.8466C19.0441 16.5749 20.1185 14.6179 20.1185 12.1266C20.1185 8.17192 16.5643 4.97217 12.4874 4.97217C8.41049 4.97217 4.85626 8.17192 4.85626 12.1266C4.85626 14.6237 5.93066 16.5749 7.24317 17.8466C8.70087 19.2578 9.78688 19.7688 9.78688 21.6619V22.7595" stroke="white" stroke-miterlimit="10"/>
<path d="M9.24097 23.8398H15.728" stroke="white" stroke-miterlimit="10"/>
<path d="M15.1879 25.46H14.1077L13.5676 26H12.4874H11.4072L10.8671 25.46H9.78107" stroke="white" stroke-miterlimit="10"/>
<path d="M10.867 22.2197H14.1076" stroke="white" stroke-miterlimit="10"/>
<path d="M9.96695 3.09056L9.40942 1" stroke="white" stroke-miterlimit="10"/>
<path d="M5.60539 5.60541L4.078 4.07812" stroke="white" stroke-miterlimit="10"/>
<path d="M3.08491 9.96619L1 9.40869" stroke="white" stroke-miterlimit="10"/>
<path d="M3.08491 15.0068L1 15.5643" stroke="white" stroke-miterlimit="10"/>
<path d="M5.60539 19.3682L4.078 20.8954" stroke="white" stroke-miterlimit="10"/>
<path d="M19.3693 19.3682L20.8967 20.8954" stroke="white" stroke-miterlimit="10"/>
<path d="M21.884 15.0068L23.9747 15.5643" stroke="white" stroke-miterlimit="10"/>
<path d="M21.884 9.96619L23.9747 9.40869" stroke="white" stroke-miterlimit="10"/>
<path d="M19.3693 5.60541L20.8967 4.07812" stroke="white" stroke-miterlimit="10"/>
<path d="M15.002 3.09056L15.5653 1" stroke="white" stroke-miterlimit="10"/>
<path d="M9.78102 10.3262L7.62061 12.4864L9.78102 14.6467" stroke="white" stroke-miterlimit="10"/>
<path d="M15.1879 10.3262L17.3541 12.4864L15.1879 14.6467" stroke="white" stroke-miterlimit="10"/>
<path d="M13.5676 8.7002L11.4072 16.2727" stroke="white" stroke-miterlimit="10"/>
</svg>
