<svg width="24" height="28" viewBox="0 0 24 28" fill="none" xmlns="http://www.w3.org/2000/svg">
<g clip-path="url(#clip0_103_2674)">
<path d="M11.9966 0.621338C13.1223 2.1446 20.1548 4.97734 23.3625 4.97734V16.796C23.3625 21.0117 12.6341 27.2116 11.9966 27.372C11.3523 27.205 0.630676 21.0117 0.630676 16.796V4.97734C3.83836 4.97734 10.8776 2.15128 11.9966 0.621338Z" stroke="white" stroke-linecap="round" stroke-linejoin="round"/>
<path d="M15.2179 21.7064C13.6106 22.8221 12.1933 23.6105 12.0034 23.6572C11.5422 23.537 3.79089 19.0674 3.79089 16.0209V10.616" stroke="white" stroke-linecap="round" stroke-linejoin="round"/>
<path d="M7.0257 6.83454C9.20258 6.13971 11.4812 5.04403 12.0034 4.34253C12.8172 5.44489 17.8966 7.48927 20.2159 7.48927V16.0276C20.2159 16.8493 19.653 17.778 18.8189 18.6933" stroke="white" stroke-linecap="round" stroke-linejoin="round"/>
</g>
<defs>
<clipPath id="clip0_103_2674">
<rect width="24" height="28" fill="white"/>
</clipPath>
</defs>
</svg>
