<svg width="32" height="23" viewBox="0 0 32 23" fill="none" xmlns="http://www.w3.org/2000/svg">
<g clip-path="url(#clip0_103_2931)">
<path d="M29.3357 22.3435H2.66429C1.56133 22.3435 0.666077 21.461 0.666077 20.3739V19.0608H12.6697L13.3357 19.7173H18.6714L19.3375 19.0608H31.3411V20.3739C31.3411 21.461 30.4458 22.3435 29.3429 22.3435H29.3357Z" stroke="white" stroke-linejoin="round"/>
<path d="M2.66431 19.0607V1.96957C2.66431 1.24244 3.25876 0.656494 3.99645 0.656494H27.9964C28.7341 0.656494 29.3286 1.24244 29.3286 1.96957V19.0537" stroke="white" stroke-linejoin="round"/>
<path d="M20.6124 9.19849H11.3805C10.985 9.19849 10.6643 9.51455 10.6643 9.90444V15.7215C10.6643 16.1114 10.985 16.4275 11.3805 16.4275H20.6124C21.0079 16.4275 21.3286 16.1114 21.3286 15.7215V9.90444C21.3286 9.51455 21.0079 9.19849 20.6124 9.19849Z" stroke="white" stroke-miterlimit="10"/>
<path d="M12.6697 9.19863V6.57248C12.6697 4.75818 14.1594 3.28979 16 3.28979C17.8407 3.28979 19.3304 4.75818 19.3304 6.57248V9.19863" stroke="white" stroke-miterlimit="10"/>
</g>
<defs>
<clipPath id="clip0_103_2931">
<rect width="32" height="23" fill="white"/>
</clipPath>
</defs>
</svg>
