<svg width="32" height="23" viewBox="0 0 32 23" fill="none" xmlns="http://www.w3.org/2000/svg">
<g clip-path="url(#clip0_103_1685)">
<path d="M29.3357 22.3432H2.66429C1.56133 22.3432 0.666077 21.4608 0.666077 20.3736V19.0605H12.6697L13.3357 19.7171H18.6714L19.3375 19.0605H31.3411V20.3736C31.3411 21.4608 30.4458 22.3432 29.3429 22.3432H29.3357Z" stroke="#020526" stroke-linejoin="round"/>
<path d="M2.66431 19.061V1.96981C2.66431 1.24268 3.25876 0.656738 3.99645 0.656738H27.9964C28.7341 0.656738 29.3286 1.24268 29.3286 1.96981V19.0539" stroke="#020526" stroke-linejoin="round"/>
<path d="M20.6124 9.19873H11.3805C10.985 9.19873 10.6643 9.5148 10.6643 9.90469V15.7218C10.6643 16.1116 10.985 16.4277 11.3805 16.4277H20.6124C21.0079 16.4277 21.3286 16.1116 21.3286 15.7218V9.90469C21.3286 9.5148 21.0079 9.19873 20.6124 9.19873Z" stroke="#020526" stroke-miterlimit="10"/>
<path d="M12.6697 9.19839V6.57224C12.6697 4.75794 14.1594 3.28955 16 3.28955C17.8407 3.28955 19.3304 4.75794 19.3304 6.57224V9.19839" stroke="#020526" stroke-miterlimit="10"/>
</g>
<defs>
<clipPath id="clip0_103_1685">
<rect width="32" height="23" fill="white"/>
</clipPath>
</defs>
</svg>
