<svg width="24" height="24" viewBox="0 0 24 24" fill="none" xmlns="http://www.w3.org/2000/svg">
<g clip-path="url(#clip0_103_1643)">
<path d="M21.2205 17.5871L13.5074 11.9785V21.4852C13.5128 21.7748 13.7385 21.8713 13.9696 21.6514L16.125 19.5656L18.2105 23.2386C18.3879 23.5228 18.7964 23.5871 19.1296 23.378L20.0004 22.8311C20.3283 22.6273 20.4573 22.2359 20.2906 21.9517L18.2858 18.4879H20.9088C21.5108 18.4772 21.6183 17.8552 21.2151 17.5978L21.2205 17.5871Z" stroke="#020526" stroke-linecap="round" stroke-linejoin="round"/>
<path d="M11.5079 0.498535V4.49317" stroke="#020526" stroke-linecap="round" stroke-linejoin="round"/>
<path d="M3.72488 3.71582L6.55751 6.54156" stroke="#020526" stroke-linecap="round" stroke-linejoin="round"/>
<path d="M0.499878 11.48H4.50426" stroke="#020526" stroke-linecap="round" stroke-linejoin="round"/>
<path d="M3.72488 19.2442L6.55751 16.4238" stroke="#020526" stroke-linecap="round" stroke-linejoin="round"/>
<path d="M22.5159 11.48H18.5115" stroke="#020526" stroke-linecap="round" stroke-linejoin="round"/>
<path d="M19.2909 3.71582L16.4637 6.54156" stroke="#020526" stroke-linecap="round" stroke-linejoin="round"/>
<path d="M11.5079 22.9596H10.5081L10.0083 22.4609H9.50839" stroke="#020526" stroke-linecap="round" stroke-linejoin="round"/>
<path d="M8.0625 3.17969L8.82575 5.02419" stroke="#020526" stroke-linecap="round" stroke-linejoin="round"/>
<path d="M3.18738 8.04297L5.03638 8.80436" stroke="#020526" stroke-linecap="round" stroke-linejoin="round"/>
<path d="M3.18738 14.9167L5.03638 14.1553" stroke="#020526" stroke-linecap="round" stroke-linejoin="round"/>
<path d="M19.8284 8.04297L17.9794 8.80436" stroke="#020526" stroke-linecap="round" stroke-linejoin="round"/>
<path d="M14.9533 3.17969L14.19 5.02419" stroke="#020526" stroke-linecap="round" stroke-linejoin="round"/>
<path d="M17.0119 11.4799C17.0119 8.44502 14.5501 5.98926 11.5079 5.98926C8.46563 5.98926 6.00388 8.44502 6.00388 11.4799C6.00388 13.5228 7.19175 14.6595 7.72388 15.1903C8.256 15.7212 8.50325 16.4879 8.50325 17.4263V19.4638H11.5079" stroke="#020526" stroke-linecap="round" stroke-linejoin="round"/>
<path d="M11.5079 20.9653H8.50864" stroke="#020526" stroke-linecap="round" stroke-linejoin="round"/>
</g>
<defs>
<clipPath id="clip0_103_1643">
<rect width="23.0158" height="24" fill="white"/>
</clipPath>
</defs>
</svg>
