<svg width="29" height="30" viewBox="0 0 29 30" fill="none" xmlns="http://www.w3.org/2000/svg">
<g clip-path="url(#clip0_103_1550)">
<path d="M16.0637 27.3584C14.3123 28.5109 12.927 29.2697 12.7045 29.3341C12.0226 29.1551 0.674706 22.5195 0.674706 18.0027V5.33267C4.06976 5.33267 11.5202 2.30475 12.7045 0.665527C13.896 2.2976 21.3393 5.33267 24.7343 5.33267V9.3341" stroke="#020526" stroke-linecap="round" stroke-linejoin="round"/>
<path d="M27.3542 17.3301H18.095C17.6986 17.3301 17.3772 17.6506 17.3772 18.0459V24.6171C17.3772 25.0125 17.6986 25.3329 18.095 25.3329H27.3542C27.7506 25.3329 28.072 25.0125 28.072 24.6171V18.0459C28.072 17.6506 27.7506 17.3301 27.3542 17.3301Z" stroke="#020526" stroke-linecap="round" stroke-linejoin="round"/>
<path d="M26.0694 17.3299V14.6599C26.0694 12.8203 24.5764 11.3242 22.7246 11.3242C20.8727 11.3242 19.3798 12.8131 19.3798 14.6599V17.3299" stroke="#020526" stroke-linecap="round" stroke-linejoin="round"/>
<path d="M22.7246 20.6655V21.997" stroke="#020526" stroke-linecap="round" stroke-linejoin="round"/>
<path d="M14.9727 24.023C13.7812 24.8033 12.8553 25.3044 12.6973 25.3473C12.2093 25.2185 4.00516 20.4296 4.00516 17.1655V11.3745" stroke="#020526" stroke-linecap="round" stroke-linejoin="round"/>
<path d="M7.4361 7.32284C9.74014 6.57839 12.1518 5.40444 12.7045 4.65283C13.5658 5.83393 18.9419 8.02434 21.3967 8.02434V9.37724" stroke="#020526" stroke-linecap="round" stroke-linejoin="round"/>
</g>
<defs>
<clipPath id="clip0_103_1550">
<rect width="28.7395" height="30" fill="white"/>
</clipPath>
</defs>
</svg>
