<svg width="29" height="30" viewBox="0 0 29 30" fill="none" xmlns="http://www.w3.org/2000/svg">
<g clip-path="url(#clip0_103_2796)">
<path d="M16.0637 27.3587C14.3123 28.5112 12.927 29.2699 12.7045 29.3343C12.0226 29.1554 0.674706 22.5197 0.674706 18.0029V5.33292C4.06976 5.33292 11.5202 2.305 12.7045 0.665771C13.896 2.29784 21.3393 5.33292 24.7343 5.33292V9.33435" stroke="white" stroke-linecap="round" stroke-linejoin="round"/>
<path d="M27.3542 17.3301H18.095C17.6986 17.3301 17.3772 17.6506 17.3772 18.0459V24.6171C17.3772 25.0125 17.6986 25.3329 18.095 25.3329H27.3542C27.7506 25.3329 28.072 25.0125 28.072 24.6171V18.0459C28.072 17.6506 27.7506 17.3301 27.3542 17.3301Z" stroke="white" stroke-linecap="round" stroke-linejoin="round"/>
<path d="M26.0694 17.3299V14.6599C26.0694 12.8203 24.5764 11.3242 22.7246 11.3242C20.8727 11.3242 19.3798 12.8131 19.3798 14.6599V17.3299" stroke="white" stroke-linecap="round" stroke-linejoin="round"/>
<path d="M22.7246 20.6658V21.9972" stroke="white" stroke-linecap="round" stroke-linejoin="round"/>
<path d="M14.9727 24.0228C13.7812 24.803 12.8553 25.3041 12.6973 25.3471C12.2093 25.2182 4.00516 20.4294 4.00516 17.1652V11.3743" stroke="white" stroke-linecap="round" stroke-linejoin="round"/>
<path d="M7.4361 7.32284C9.74014 6.57839 12.1518 5.40444 12.7045 4.65283C13.5658 5.83393 18.9419 8.02434 21.3967 8.02434V9.37724" stroke="white" stroke-linecap="round" stroke-linejoin="round"/>
</g>
<defs>
<clipPath id="clip0_103_2796">
<rect width="28.7395" height="30" fill="white"/>
</clipPath>
</defs>
</svg>
