<svg width="25" height="25" viewBox="0 0 25 25" fill="none" xmlns="http://www.w3.org/2000/svg">
<g clip-path="url(#clip0_103_1445)">
<path d="M13.9896 8.33147C15.0146 6.98859 15.4764 6.25 17.1379 6.25H19.7567C21.0746 6.25 22.9049 6.75358 22.9049 8.85184V10.9333C22.9049 12.0859 21.8743 13.0148 20.8099 13.0148" stroke="#020526" stroke-linejoin="round"/>
<path d="M16.6141 12.4998V9.89795H16.0847L15.0372 10.4183" stroke="#020526" stroke-linejoin="round"/>
<path d="M20.8043 9.37793V14.5872" stroke="#020526" stroke-linejoin="round"/>
<path d="M2.46675 18.3358C1.27842 20.1431 0.57443 22.398 0.523743 24.4795H24.4762C24.3467 18.2295 19.0358 12.9307 12.5028 12.9307C11.7481 12.9307 11.0103 12.9978 10.2951 13.1321" stroke="#020526" stroke-linejoin="round"/>
<path d="M5.60376 24.4798V23.495C5.60376 22.8236 5.95857 22.3927 6.6344 22.3927H10.0586C10.7344 22.3927 11.3708 21.7325 11.3708 21.061V20.5742C11.3708 19.9028 11.8214 19.2649 12.4972 19.2649C13.173 19.2649 13.4659 18.8173 13.4659 18.1459V17.6591C13.4659 16.9876 13.173 16.6631 12.4972 16.6631H10.3177" stroke="#020526" stroke-linejoin="round"/>
<path d="M21.328 17.189H17.6335C17.0928 17.189 16.6085 17.8604 16.6085 18.3976V18.8844C16.6085 19.4215 17.0928 19.7964 17.6335 19.7964H18.6134C19.1541 19.7964 19.7567 20.2608 19.7567 20.798V20.8539C19.7567 21.3911 19.1541 21.8835 18.6134 21.8835H16.1692C15.0878 21.8835 13.9896 22.6724 13.9896 23.7467V24.4853" stroke="#020526" stroke-linejoin="round"/>
<path d="M8.74636 20.3167V9.3778H9.31518C9.31518 9.3778 10.5204 10.2898 11.3708 10.9389C12.7056 11.9573 14.2093 10.6647 14.2093 10.6647C14.2093 10.6647 12.2663 8.61683 11.3708 7.8111C10.4303 6.9718 9.39403 6.25 7.69883 6.25H5.07999C3.76213 6.25 1.93176 6.97739 1.93176 9.3778V11.4593C1.93176 12.6119 3.08067 13.5407 4.02683 13.5407" stroke="#020526" stroke-linejoin="round"/>
<path d="M4.02679 8.85742V20.3167" stroke="#020526" stroke-linejoin="round"/>
<path d="M6.1275 13.0205V20.3168" stroke="#020526" stroke-linejoin="round"/>
<path d="M6.3866 0.520508C5.41228 0.520508 4.5506 1.20874 4.5506 2.18792V3.02163C4.5506 4.00081 5.41228 4.68904 6.3866 4.68904C7.36092 4.68904 8.2226 4.00081 8.2226 3.02163V2.18792C8.2226 1.20874 7.36092 0.520508 6.3866 0.520508Z" stroke="#020526" stroke-linejoin="round"/>
<path d="M18.9683 0.520508C17.9939 0.520508 17.1323 1.20874 17.1323 2.18792V3.02163C17.1323 4.00081 17.9939 4.68904 18.9683 4.68904C19.9426 4.68904 20.8043 4.00081 20.8043 3.02163V2.18792C20.8043 1.20874 19.9426 0.520508 18.9683 0.520508Z" stroke="#020526" stroke-linejoin="round"/>
</g>
<defs>
<clipPath id="clip0_103_1445">
<rect width="25" height="25" fill="white"/>
</clipPath>
</defs>
</svg>
