<svg width="142" height="50" viewBox="0 0 142 50" fill="none" xmlns="http://www.w3.org/2000/svg">
<g clip-path="url(#clip0_179_1602)">
<path d="M52.4785 9.76072C52.4785 9.76072 53.6384 9.44001 55.6656 8.82865C57.6929 8.2173 60.5976 7.32532 64.1074 6.29303C71.1272 4.24849 80.6582 1.71286 90.623 0.620433C95.5953 0.069209 100.668 -0.15128 105.5 0.109298C110.321 0.369877 114.889 1.08146 118.843 2.10373C119.831 2.38435 120.79 2.61486 121.697 2.90551C122.605 3.20617 123.472 3.49682 124.289 3.77744C125.106 4.07811 125.873 4.40884 126.599 4.68947C126.962 4.8398 127.315 4.98011 127.658 5.12042C127.991 5.28078 128.314 5.43111 128.626 5.58145C129.867 6.17276 130.916 6.65383 131.713 7.13489C132.509 7.5859 133.094 7.91663 133.437 8.09703C134.103 8.47788 134.718 8.92888 135.323 9.33979C135.918 9.76072 136.513 10.1315 137.028 10.5725C138.057 11.4344 138.995 12.1961 139.711 12.9278C141.123 14.411 142.151 15.2629 141.698 15.6638C141.244 16.0647 140.407 15.293 138.793 14.1605C137.986 13.5992 136.987 12.9979 135.928 12.2462C135.404 11.8654 134.809 11.5447 134.224 11.1638C133.629 10.803 133.034 10.3721 132.388 10.0113C132.066 9.82086 131.511 9.50014 130.744 9.05917C129.998 8.58812 128.989 8.09703 127.799 7.50572C127.507 7.35538 127.194 7.20505 126.881 7.04469C126.559 6.90438 126.216 6.76407 125.873 6.61374C125.177 6.32309 124.441 5.98234 123.654 5.67165C122.857 5.381 122.03 5.08033 121.153 4.76964C120.275 4.46898 119.347 4.21842 118.399 3.92777C114.577 2.84537 110.139 2.01353 105.399 1.6427C100.668 1.26186 95.6558 1.34203 90.7138 1.75295C80.8095 2.56475 71.2381 4.80973 64.178 6.65383C60.648 7.5859 57.7231 8.3977 55.6757 8.94892C53.6485 9.47008 52.4785 9.76072 52.4785 9.76072Z" fill="white"/>
<path d="M47.6574 8.59812C47.1027 8.55804 47.1027 9.41995 47.6574 9.46004C50.2797 9.65046 49.725 14.4712 47.2641 14.6516C46.7195 14.6917 46.084 14.4812 45.61 14.2407C45.2873 14.0803 45.0049 14.2807 44.9544 14.6115C44.7426 16.205 42.6952 16.7462 41.848 15.2429C41.6665 14.9222 41.1521 14.9923 41.0613 15.3431C40.5873 17.0669 38.3583 17.1671 37.4809 15.6438C37.2993 15.3231 36.7849 15.3932 36.6942 15.744C36.1395 17.8988 32.8313 18.1293 32.4985 15.8041C32.4581 15.5536 32.1757 15.4734 31.9639 15.5035C29.4223 15.8743 29.3416 12.2963 31.2176 11.2941C31.4193 11.1839 31.5 10.8932 31.3689 10.7028C30.7133 9.69055 30.4208 7.69612 32.6498 7.37541C33.1742 7.29523 33.8802 7.61594 34.3442 7.8665C34.6467 8.03688 34.9695 7.81639 34.9998 7.49568C35.262 4.67943 39.0946 4.90994 39.8712 7.35537C39.9821 7.69612 40.4763 7.78632 40.6579 7.45559C40.9201 6.99457 41.2731 6.53354 41.6967 6.20281C43.2701 5.00014 46.8102 6.04245 46.2656 8.54801C46.1345 9.08922 46.9716 9.31973 47.0926 8.77852C47.5061 6.89434 45.6907 5.00014 43.8853 4.70949C42.4814 4.49201 41.2035 5.27174 40.3553 6.34412C38.8999 3.86762 34.9846 3.92475 34.2292 6.86628C31.625 5.91216 29.0259 8.10202 30.4097 10.7679C28.0859 12.4156 28.6649 16.4395 31.7269 16.3644C32.0376 17.4367 33.025 18.1864 34.1324 18.3498C35.5989 18.5743 36.6679 17.9268 37.2368 16.7472C38.5187 18.0601 40.6387 17.9298 41.5717 16.3193C42.9706 17.8627 45.0866 17.1511 45.6897 15.1978C47.134 15.73 48.8042 15.5957 49.6847 14.1595C50.8042 12.3254 50.1991 8.77752 47.6574 8.59712V8.59812Z" fill="white"/>
<path d="M21.5321 13.0992C19.881 9.9111 14.7524 10.5004 13.0661 13.4419C11.2163 12.2162 8.91877 12.1601 7.13358 13.6283C5.83554 14.6927 5.06095 16.3744 5.50775 17.994C1.65699 18.895 -1.22855 22.036 0.527385 26.1061C2.30148 30.2192 6.72007 29.4535 9.78312 27.3057C10.9904 29.258 13.6833 30.3495 15.1578 28.2989C14.9813 28.2047 14.823 28.0724 14.7 27.9C14.6415 27.8189 14.5951 27.7327 14.5567 27.6445C13.3485 29.5307 11.061 28.0263 10.3005 26.4568C10.2098 26.2664 9.88701 26.1662 9.70546 26.3065C6.9117 28.4513 2.61515 29.5437 1.14262 25.3444C-0.138278 21.6963 2.91772 19.341 6.18552 18.7397C6.48809 18.6896 6.54861 18.3388 6.44775 18.1083C5.92329 16.9357 6.41749 15.5626 7.2647 14.6807C8.84817 13.017 11.2082 13.017 12.9228 14.39C13.1145 14.5404 13.4876 14.5805 13.5986 14.2998C14.7685 11.5838 19.761 10.5816 20.9209 13.8388C21.0016 14.0793 21.3142 14.2698 21.5563 14.0994C24.0344 12.3495 27.3223 14.0984 27.8246 16.8555C28.0001 16.7342 28.2331 16.7352 28.4066 16.8595L28.7293 17.091C28.3733 13.7336 24.5971 11.3643 21.5321 13.0992Z" fill="white"/>
<path d="M27.0238 35.5007L26.2886 35.9738C25.6733 36.4077 24.8241 36.2694 24.3924 35.6671C24.1837 35.3744 24.0989 35.0196 24.1554 34.6658C24.2119 34.3071 24.4065 33.9944 24.7031 33.7859L34.3532 26.8826C34.5297 26.7563 34.7667 26.7563 34.9422 26.8826L38.3189 29.2979V27.526L28.0818 20.1797L17.8447 27.526V45.098H26.9693V35.7282C26.9693 35.648 26.9885 35.5699 27.0248 35.4997L27.0238 35.5007Z" fill="white"/>
<path d="M28.1111 17.8848L28.0789 17.9078C28.1242 17.9359 28.1737 17.9559 28.2261 17.968L28.1101 17.8858L28.1111 17.8848Z" fill="white"/>
<path d="M40.92 26.4277L28.7334 17.7123L28.1111 17.2673L27.8862 17.4287L15.3021 26.4277C15.0368 26.6151 14.9168 26.9278 14.9582 27.2284C14.9763 27.3617 15.0268 27.493 15.1105 27.6103C15.1932 27.7266 15.3011 27.8147 15.4221 27.8729C15.6954 28.0062 16.0343 27.9881 16.3006 27.8007L28.1111 19.352L39.9215 27.8007C40.0728 27.911 40.2443 27.9611 40.4157 27.9611C40.678 27.9611 40.9402 27.8408 41.1117 27.6103C41.3941 27.2295 41.3033 26.6983 40.92 26.4277ZM28.1111 17.8847L28.2271 17.9669C28.1746 17.9559 28.1242 17.9358 28.0798 17.9068L28.1121 17.8837L28.1111 17.8847Z" fill="white"/>
<path d="M38.3179 32.7366L34.6366 30.0957L27.5261 35.196V45.099V47.7048H41.7471V35.196L38.3179 32.7366Z" fill="white"/>
<path d="M44.2988 34.1949L38.3179 29.9164L34.6466 27.2896L24.9945 34.1949C24.6113 34.4655 24.5306 34.9967 24.8029 35.3775C25.0752 35.7583 25.6098 35.8385 25.993 35.5679L34.6466 29.3742L38.3179 32.002L43.3003 35.5679C43.4516 35.6782 43.623 35.7283 43.7945 35.7283C44.0567 35.7283 44.3189 35.608 44.4904 35.3775C44.7728 34.9967 44.682 34.4655 44.2988 34.1949Z" fill="white"/>
<path d="M62.1709 31.5189C62.1709 32.0501 62.0498 32.5612 61.8179 33.0423C61.5859 33.5233 61.2531 33.9543 60.8395 34.3151C60.4159 34.6859 59.9217 34.9766 59.3468 35.197C58.772 35.4175 58.1366 35.5278 57.4406 35.5278C56.8153 35.5278 56.2606 35.4877 55.7563 35.4175C55.2621 35.3474 54.7881 35.2371 54.3544 35.0768C53.9207 34.9264 53.4971 34.726 53.0937 34.4754C52.6902 34.2349 52.2767 33.9342 51.843 33.5935L53.8198 31.6091C54.3947 32.0901 54.9595 32.4209 55.5142 32.6213C56.069 32.8218 56.664 32.912 57.3095 32.912C57.5717 32.912 57.8239 32.8719 58.0559 32.7917C58.2878 32.7115 58.4896 32.6113 58.6711 32.481C58.8426 32.3507 58.9838 32.1904 59.0846 32.02C59.1855 31.8396 59.2359 31.6492 59.2359 31.4287C59.2359 31.2082 59.1956 30.9977 59.1048 30.8173C59.0241 30.6369 58.8728 30.4665 58.6509 30.2962C58.4391 30.1258 58.1366 29.9554 57.7533 29.785C57.37 29.6147 56.8758 29.4142 56.2808 29.2037C55.7563 29.0133 55.252 28.7928 54.7578 28.5523C54.2737 28.3118 53.8501 28.0111 53.4769 27.6703C53.1138 27.3296 52.8213 26.9187 52.5995 26.4576C52.3776 25.9966 52.2666 25.4454 52.2666 24.814C52.2666 24.1826 52.3876 23.6514 52.6398 23.1403C52.8819 22.6291 53.2248 22.1882 53.6484 21.8274C54.072 21.4666 54.5662 21.1759 55.1411 20.9755C55.7059 20.775 56.3211 20.6748 56.9868 20.6748C58.0861 20.6748 59.014 20.8151 59.7705 21.1058C60.5269 21.3964 61.1926 21.8073 61.7876 22.3585L59.8511 24.3029C59.4881 23.9621 59.0947 23.6915 58.6509 23.5111C58.2072 23.3307 57.6827 23.2305 57.0876 23.2305C56.8153 23.2305 56.5531 23.2706 56.3211 23.3507C56.0891 23.4309 55.8874 23.5412 55.716 23.6815C55.5445 23.8218 55.4134 23.9821 55.3125 24.1625C55.2117 24.3429 55.1612 24.5434 55.1612 24.7438C55.1612 24.9743 55.2117 25.1748 55.3024 25.3552C55.3932 25.5356 55.5647 25.716 55.7866 25.8864C56.0085 26.0568 56.311 26.2271 56.6943 26.4075C57.0675 26.5779 57.5415 26.7683 58.1063 26.9688C58.8224 27.2193 59.4376 27.4899 59.9621 27.7906C60.4765 28.0913 60.9001 28.412 61.2228 28.7728C61.5456 29.1336 61.7876 29.5345 61.9389 29.9755C62.0902 30.4565 62.1709 30.9576 62.1709 31.5189Z" fill="white"/>
<path d="M74.5059 30.1059C74.5059 30.8776 74.3647 31.5992 74.0722 32.2607C73.7898 32.9221 73.3864 33.4934 72.8821 33.9745C72.3778 34.4555 71.7928 34.8364 71.107 35.117C70.4312 35.3976 69.7051 35.5379 68.9385 35.5379C68.172 35.5379 67.4559 35.3976 66.7802 35.117C66.1044 34.8364 65.5195 34.4555 65.0152 33.9645C64.5109 33.4734 64.1175 32.9021 63.825 32.2406C63.5426 31.5792 63.3914 30.8676 63.3914 30.1059C63.3914 29.3442 63.5426 28.6527 63.8351 27.9912C64.1276 27.3297 64.531 26.7585 65.0253 26.2573C65.5295 25.7663 66.1145 25.3754 66.7903 25.0948C67.466 24.8141 68.172 24.6738 68.9285 24.6738C69.6849 24.6738 70.4212 24.8141 71.0969 25.0948C71.7727 25.3754 72.3677 25.7562 72.872 26.2373C73.3763 26.7184 73.7696 27.2896 74.0621 27.9611C74.3647 28.6326 74.5059 29.3442 74.5059 30.1059ZM71.9239 30.1059C71.9239 29.6649 71.8433 29.254 71.692 28.8731C71.5407 28.4923 71.3289 28.1616 71.0566 27.8709C70.7842 27.5903 70.4716 27.3598 70.1186 27.1994C69.7656 27.0391 69.3823 26.9589 68.9688 26.9589C68.5553 26.9589 68.1821 27.0391 67.819 27.1994C67.4559 27.3598 67.1433 27.5803 66.881 27.8709C66.6087 28.1515 66.3969 28.4923 66.2456 28.8731C66.0944 29.254 66.0137 29.6649 66.0137 30.1059C66.0137 30.5469 66.0944 30.9578 66.2456 31.3386C66.3969 31.7195 66.6087 32.0502 66.881 32.3408C67.1534 32.6215 67.466 32.852 67.819 33.0123C68.1821 33.1727 68.5553 33.2529 68.9688 33.2529C69.3823 33.2529 69.7555 33.1727 70.1186 33.0123C70.4817 32.852 70.7943 32.6315 71.0566 32.3408C71.3289 32.0602 71.5407 31.7195 71.692 31.3386C71.8433 30.9578 71.9239 30.5469 71.9239 30.1059Z" fill="white"/>
<path d="M85.3179 35.2773H82.6955V34.4955C82.5241 34.6659 82.3325 34.8062 82.1106 34.9365C81.8887 35.0568 81.6567 35.167 81.4146 35.2572C81.1726 35.3474 80.9204 35.4176 80.6683 35.4577C80.4162 35.5078 80.1741 35.5278 79.9421 35.5278C79.4177 35.5278 78.9134 35.4476 78.4293 35.2773C77.9451 35.1069 77.5215 34.8563 77.1484 34.5055C76.7752 34.1648 76.4827 33.7138 76.2608 33.1626C76.0389 32.6113 75.928 31.9699 75.928 31.2182V24.9543H78.5503V31.098C78.5503 31.4688 78.6108 31.7895 78.7217 32.0701C78.8327 32.3508 78.984 32.5813 79.1756 32.7717C79.3572 32.9521 79.579 33.0924 79.8312 33.1826C80.0833 33.2728 80.3355 33.3129 80.5977 33.3129C81.4449 33.3129 82.1711 33.0323 82.7863 32.451V24.9543H85.3078V35.2773H85.3179Z" fill="white"/>
<path d="M93.2856 35.0468C93.0233 35.2172 92.7107 35.3375 92.3678 35.4176C92.0148 35.4978 91.6719 35.5379 91.3188 35.5379C90.7036 35.5379 90.1892 35.4678 89.7656 35.3174C89.342 35.1671 89.0092 34.9366 88.7571 34.6259C88.5049 34.3152 88.3234 33.9243 88.2023 33.4433C88.0914 32.9622 88.0309 32.411 88.0309 31.7595V27.2595H86.7197V26.107C87.5568 25.7662 88.2326 25.2551 88.747 24.5836C89.2613 23.9121 89.6244 23.0301 89.8161 21.9578H90.6532V24.9644H93.2755V27.2696H90.6532V31.97C90.6532 32.2306 90.6834 32.4511 90.754 32.6114C90.8146 32.7818 90.9053 32.9121 91.0163 33.0023C91.1272 33.1025 91.2483 33.1626 91.3794 33.2027C91.5206 33.2428 91.6618 33.2528 91.8131 33.2528C92.0148 33.2528 92.2568 33.2128 92.5493 33.1426C92.8317 33.0724 93.0738 32.9522 93.2755 32.7818V35.0468H93.2856Z" fill="white"/>
<path d="M104.178 35.2773H101.657V29.0935C101.657 28.7227 101.596 28.402 101.485 28.1214C101.374 27.8408 101.223 27.6102 101.031 27.4198C100.84 27.2394 100.628 27.0991 100.376 27.0089C100.124 26.9187 99.8715 26.8786 99.6093 26.8786C99.2058 26.8786 98.8327 26.9388 98.4696 27.059C98.1065 27.1793 97.7535 27.3497 97.4206 27.5601V35.2773H94.7983V20.4443H97.3198L97.34 25.5256C97.7232 25.2249 98.167 25.0045 98.6814 24.8641C99.1857 24.7238 99.6799 24.6537 100.144 24.6537C100.688 24.6537 101.203 24.7439 101.687 24.9143C102.171 25.0846 102.595 25.3452 102.968 25.696C103.341 26.0468 103.633 26.4878 103.855 27.0189C104.077 27.5501 104.178 28.1815 104.178 28.9031V35.2773Z" fill="white"/>
<path d="M120.951 24.9543L117.471 35.2773H115.242L113.175 29.1336L111.117 35.2773H108.878L105.388 24.9543H108.112L110.058 31.3987L112.015 24.9543H114.304L116.271 31.3987L118.228 24.9543H120.951Z" fill="white"/>
<path d="M130.603 35.2773H127.981V34.7261C127.517 35.0368 127.033 35.2472 126.518 35.3675C126.004 35.4878 125.469 35.5479 124.925 35.5479C124.41 35.5479 123.957 35.4777 123.543 35.3274C123.13 35.1771 122.777 34.9666 122.474 34.686C122.171 34.4054 121.939 34.0746 121.768 33.7038C121.607 33.323 121.526 32.902 121.526 32.441C121.526 31.8597 121.657 31.3486 121.919 30.9176C122.181 30.4867 122.534 30.1259 122.988 29.8352C123.442 29.5446 123.967 29.3241 124.562 29.1838C125.167 29.0435 125.812 28.9733 126.498 28.9733H128.011C128.011 28.372 127.809 27.8909 127.406 27.5301C127.002 27.1693 126.428 26.9989 125.671 26.9989C125.308 26.9989 124.935 27.0591 124.542 27.1894C124.148 27.3196 123.765 27.5602 123.372 27.9009L121.818 26.3675C122.373 25.8464 123.019 25.4455 123.755 25.1548C124.491 24.8742 125.248 24.7239 126.024 24.7239C126.75 24.7239 127.396 24.8341 127.971 25.0646C128.536 25.2951 128.999 25.5758 129.352 25.9366C129.806 26.3876 130.129 26.8887 130.321 27.4499C130.512 28.0112 130.603 28.7228 130.603 29.5847V35.2773ZM127.981 32.6715V30.7673H126.791C126.428 30.7673 126.095 30.7873 125.772 30.8374C125.459 30.8876 125.177 30.9677 124.945 31.078C124.713 31.1882 124.521 31.3386 124.39 31.519C124.249 31.6994 124.178 31.9098 124.178 32.1604C124.178 32.5212 124.32 32.8118 124.602 33.0323C124.884 33.2628 125.248 33.3731 125.691 33.3731C126.075 33.3731 126.458 33.3129 126.831 33.1927C127.214 33.0724 127.598 32.902 127.981 32.6715Z" fill="white"/>
<path d="M142 24.9543L137.33 37.2216C136.987 38.1336 136.524 38.7951 135.969 39.206C135.404 39.6069 134.738 39.8173 133.952 39.8173C133.831 39.8173 133.7 39.8073 133.558 39.7873C133.417 39.7672 133.276 39.7372 133.145 39.7071L132.287 37.3118C132.489 37.402 132.701 37.4822 132.913 37.5323C133.125 37.5824 133.336 37.6124 133.528 37.6124C133.931 37.6124 134.305 37.5222 134.648 37.3318C134.98 37.1514 135.243 36.8006 135.424 36.3096L135.787 35.2773L131.783 24.9543H134.607L136.998 31.5991L139.247 24.9543H142Z" fill="white"/>
<path d="M52.1355 40.6895H53.0432V44.097H57.481V40.6895H58.3887V48.3064H57.481V44.8988H53.0432V48.3064H52.1355V40.6895Z" fill="white"/>
<path d="M60.5068 45.5V45.4699C60.5068 43.8964 61.7474 42.5535 63.4418 42.5535C65.1362 42.5535 66.3566 43.8664 66.3566 45.4399V45.4599C66.3566 47.0334 65.106 48.3764 63.4115 48.3764C61.7373 48.3864 60.5068 47.0635 60.5068 45.5ZM65.4489 45.5V45.4699C65.4489 44.2773 64.5512 43.2951 63.3611 43.2951C62.171 43.2951 61.3137 44.2773 61.3137 45.4499V45.4699C61.3137 46.6726 62.2013 47.6347 63.3914 47.6347C64.6017 47.6347 65.4489 46.6626 65.4489 45.5Z" fill="white"/>
<path d="M68.2728 46.1014V42.6938H69.0796V45.9611C69.0796 46.9934 69.6444 47.6448 70.6328 47.6448C71.6212 47.6448 72.3071 46.9433 72.3071 45.8909V42.6938H73.1139V48.3063H72.3071V47.284C71.9238 47.8854 71.3489 48.3765 70.3807 48.3765C69.0191 48.3765 68.2324 47.4644 68.2324 46.1415" fill="white"/>
<path d="M75.0303 47.5445L75.4539 46.9532C76.059 47.4042 76.7348 47.6648 77.4004 47.6648C78.0661 47.6648 78.5603 47.314 78.5603 46.7828V46.7427C78.5603 46.1915 77.9047 45.971 77.1685 45.7706C76.3011 45.52 75.3328 45.2294 75.3328 44.2071V44.177C75.3328 43.2149 76.1397 42.5735 77.2491 42.5735C77.935 42.5735 78.7015 42.814 79.2764 43.1949L78.8931 43.8263C78.3687 43.4855 77.7736 43.2851 77.229 43.2851C76.5633 43.2851 76.1397 43.6358 76.1397 44.0969V44.1269C76.1397 44.6481 76.8255 44.8586 77.5719 45.079C78.4393 45.3396 79.3672 45.6704 79.3672 46.6626V46.6926C79.3672 47.755 78.4897 48.3663 77.3702 48.3663C76.5633 48.3663 75.6758 48.0557 75.0404 47.5445" fill="white"/>
<path d="M81.4851 40.4888H82.3928V41.3908H81.4851V40.4888ZM81.4851 42.6937H82.292V48.3061H81.4851V42.6937Z" fill="white"/>
<path d="M84.7126 42.6938H85.6204V43.6659C85.9835 43.0546 86.5684 42.5735 87.5266 42.5735C88.868 42.5735 89.6547 43.4855 89.6547 44.8185V48.3062H88.8478V45.039C88.8478 43.9966 88.2628 43.3552 87.2543 43.3552C86.2457 43.3552 85.5195 44.0568 85.5195 45.1091V48.3062H84.7126V42.6938Z" fill="white"/>
<path d="M91.8231 49.2283L92.2064 48.5769C92.8519 49.0379 93.568 49.2884 94.3748 49.2884C95.6154 49.2884 96.4222 48.6069 96.4222 47.304V46.6426C95.9381 47.294 95.2523 47.8152 94.2134 47.8152C92.872 47.8152 91.5811 46.8129 91.5811 45.1994V45.1793C91.5811 43.5457 92.8821 42.5435 94.2235 42.5435C95.2825 42.5435 95.9684 43.0646 96.4222 43.666V42.6938H97.2291V47.284C97.2291 48.1459 96.9669 48.8074 96.513 49.2584C96.0087 49.7595 95.2624 50 94.3748 50C93.4368 50 92.5695 49.7394 91.8231 49.2183M96.513 45.1994V45.1793C96.513 44.0268 95.5044 43.2751 94.4353 43.2751C93.3662 43.2751 92.4787 44.0167 92.4787 45.1693V45.1893C92.4787 46.3218 93.3864 47.1036 94.4353 47.1036C95.4843 47.1036 96.513 46.3319 96.513 45.1994Z" fill="white"/>
<path d="M105.489 41.4912H102.968V40.6895H108.919V41.4912H106.397V48.3064H105.489V41.4912Z" fill="white"/>
<path d="M109.927 42.6937H110.734V44.157C111.148 43.2249 111.975 42.5534 113.054 42.5935V43.4955H112.983C111.743 43.4955 110.734 44.3775 110.734 46.0612V48.3062H109.927V42.6937Z" fill="white"/>
<path d="M114.667 46.1014V42.6938H115.575V45.9611C115.575 46.9934 116.14 47.6448 117.128 47.6448C118.117 47.6448 118.803 46.9433 118.803 45.8909V42.6938H119.61V48.3063H118.803V47.284C118.419 47.8854 117.844 48.3765 116.876 48.3765C115.515 48.3765 114.728 47.4644 114.728 46.1415" fill="white"/>
<path d="M121.526 47.5445L121.949 46.9532C122.555 47.4042 123.23 47.6648 123.896 47.6648C124.562 47.6648 125.056 47.314 125.056 46.7828V46.7427C125.056 46.1915 124.4 45.971 123.664 45.7706C122.797 45.52 121.828 45.2294 121.828 44.2071V44.177C121.828 43.2149 122.635 42.5735 123.745 42.5735C124.431 42.5735 125.197 42.814 125.772 43.1949L125.389 43.8263C124.864 43.4855 124.269 43.2851 123.725 43.2851C123.059 43.2851 122.635 43.6358 122.635 44.0969V44.1269C122.635 44.6481 123.321 44.8586 124.067 45.079C124.935 45.3396 125.863 45.6704 125.863 46.6626V46.6926C125.863 47.755 124.985 48.3663 123.866 48.3663C123.059 48.3663 122.171 48.0557 121.536 47.5445" fill="white"/>
<path d="M128.082 46.8029V43.3953H127.275V42.6938H128.082V40.99H128.888V42.6938H130.704V43.3953H128.888V46.6626C128.888 47.3441 129.262 47.5947 129.806 47.5947C130.079 47.5947 130.31 47.5445 130.603 47.4042V48.1258C130.31 48.2762 129.998 48.3664 129.594 48.3664C128.687 48.3664 128.011 47.9254 128.011 46.7929" fill="white"/>
</g>
<defs>
<clipPath id="clip0_179_1602">
<rect width="142" height="50" fill="white"/>
</clipPath>
</defs>
</svg>
