<svg width="27" height="27" viewBox="0 0 27 27" fill="none" xmlns="http://www.w3.org/2000/svg">
<path d="M13.7995 4.05273H13.1968C10.5016 4.05273 8.31677 6.23793 8.31677 8.93348V11.3641C8.31677 14.0597 10.5016 16.2448 13.1968 16.2448H13.7995C16.4946 16.2448 18.6795 14.0597 18.6795 11.3641V8.93348C18.6795 6.23793 16.4946 4.05273 13.7995 4.05273Z" stroke="white" stroke-linecap="round" stroke-linejoin="round"/>
<path d="M5.27081 21.7283V20.7106C5.27081 18.2411 8.73801 16.2383 13.0153 16.2383H13.9809C18.2582 16.2383 21.7254 18.2411 21.7254 20.7106V21.7283" stroke="white" stroke-linecap="round" stroke-linejoin="round"/>
<path d="M1 5.8807V1H5.88001" stroke="white" stroke-linecap="round" stroke-linejoin="round"/>
<path d="M1 21.1191V25.9999H5.88001" stroke="white" stroke-linecap="round" stroke-linejoin="round"/>
<path d="M25.9962 5.8807V1H21.1162" stroke="white" stroke-linecap="round" stroke-linejoin="round"/>
<path d="M25.9962 21.1191V25.9999H21.1162" stroke="white" stroke-linecap="round" stroke-linejoin="round"/>
</svg>
