<svg width="28" height="30" viewBox="0 0 28 30" fill="none" xmlns="http://www.w3.org/2000/svg">
<g clip-path="url(#clip0_103_1559)">
<path d="M19.3762 4.39111C23.8074 6.49944 26.8756 11.0182 26.8756 16.2555C26.8756 23.507 21.001 29.3822 13.75 29.3822C6.49902 29.3822 0.62439 23.507 0.62439 16.2555C0.62439 13.2944 1.60461 10.5684 3.25623 8.37276" stroke="#020526" stroke-linecap="round" stroke-linejoin="round"/>
<path d="M20.0006 16.249C20.0006 23.5006 17.2009 29.3757 13.75 29.3757C10.2991 29.3757 7.49939 23.5006 7.49939 16.249" stroke="#020526" stroke-linejoin="round"/>
<path d="M13.75 16.249V29.3757" stroke="#020526" stroke-linejoin="round"/>
<path d="M26.8756 16.249H0.62439" stroke="#020526" stroke-linejoin="round"/>
<path d="M23.7537 24.7023C21.3434 23.3527 17.7582 22.5 13.75 22.5C9.74182 22.5 6.15662 23.3527 3.75305 24.7023" stroke="#020526" stroke-linejoin="round"/>
<path d="M16.8719 9.99756H21.2494V16.2487" stroke="#020526" stroke-linejoin="round"/>
<path d="M10.6281 6.25098H5.62622V16.2487" stroke="#020526" stroke-linejoin="round"/>
<path d="M16.8719 16.249V4.37793H10.6281V16.249" stroke="#020526" stroke-linejoin="round"/>
<path d="M14.9988 2.49756H12.5012V4.37088H14.9988V2.49756Z" stroke="#020526" stroke-linejoin="round"/>
<path d="M13.75 2.49776V0" stroke="#020526" stroke-linejoin="round"/>
<path d="M12.5012 6.87549H14.9988" stroke="#020526" stroke-linejoin="round"/>
<path d="M12.5012 9.37354H14.9988" stroke="#020526" stroke-linejoin="round"/>
<path d="M12.5012 11.8779H14.9988" stroke="#020526" stroke-linejoin="round"/>
<path d="M7.49939 8.74902H8.74817" stroke="#020526" stroke-linejoin="round"/>
<path d="M7.49939 11.2534H8.74817" stroke="#020526" stroke-linejoin="round"/>
<path d="M7.49939 13.751H8.74817" stroke="#020526" stroke-linejoin="round"/>
<path d="M16.8719 7.5H19.3762V9.99776" stroke="#020526" stroke-linejoin="round"/>
</g>
<defs>
<clipPath id="clip0_103_1559">
<rect width="27.5" height="30" fill="white"/>
</clipPath>
</defs>
</svg>
