<svg width="26" height="24" viewBox="0 0 26 24" fill="none" xmlns="http://www.w3.org/2000/svg">
<g clip-path="url(#clip0_103_2858)">
<path d="M20.2752 20.3194C22.6975 20.3194 24.6611 18.3521 24.6611 15.9252C24.6611 13.4984 22.6975 11.531 20.2752 11.531C17.853 11.531 15.8893 13.4984 15.8893 15.9252C15.8893 18.3521 17.853 20.3194 20.2752 20.3194Z" stroke="white" stroke-miterlimit="10"/>
<path d="M17.5377 19.2166L13.1518 23.6108" stroke="white" stroke-miterlimit="10"/>
<path d="M15.8952 0.548584H9.31931V3.84571H15.8952V0.548584Z" stroke="white" stroke-miterlimit="10"/>
<path d="M15.3477 12.6281H14.2468V9.33691H20.8227V10.434" stroke="white" stroke-miterlimit="10"/>
<path d="M11.5093 9.33691H4.93341V12.634H11.5093V9.33691Z" stroke="white" stroke-miterlimit="10"/>
<path d="M7.12341 18.1194H0.547501V21.4165H7.12341V18.1194Z" stroke="white" stroke-miterlimit="10"/>
<path d="M13.1518 21.4165H9.31931V18.1194H14.7943" stroke="white" stroke-miterlimit="10"/>
<path d="M12.6043 3.8457V6.58839" stroke="white" stroke-miterlimit="10"/>
<path d="M8.21841 9.33697V6.58838H17.5377V9.33697" stroke="white" stroke-miterlimit="10"/>
<path d="M8.21841 12.6282V15.3768" stroke="white" stroke-miterlimit="10"/>
<path d="M3.83839 18.1194V15.3767H12.6043V18.1194" stroke="white" stroke-miterlimit="10"/>
</g>
<defs>
<clipPath id="clip0_103_2858">
<rect width="25.2086" height="24" fill="white"/>
</clipPath>
</defs>
</svg>
