<svg width="26" height="24" viewBox="0 0 26 24" fill="none" xmlns="http://www.w3.org/2000/svg">
<g clip-path="url(#clip0_103_1612)">
<path d="M20.2752 20.3197C22.6975 20.3197 24.6611 18.3523 24.6611 15.9255C24.6611 13.4986 22.6975 11.5312 20.2752 11.5312C17.853 11.5312 15.8893 13.4986 15.8893 15.9255C15.8893 18.3523 17.853 20.3197 20.2752 20.3197Z" stroke="#020526" stroke-miterlimit="10"/>
<path d="M17.5377 19.2163L13.1518 23.6105" stroke="#020526" stroke-miterlimit="10"/>
<path d="M15.8952 0.54834H9.31931V3.84546H15.8952V0.54834Z" stroke="#020526" stroke-miterlimit="10"/>
<path d="M15.3477 12.6281H14.2468V9.33691H20.8227V10.434" stroke="#020526" stroke-miterlimit="10"/>
<path d="M11.5093 9.33691H4.93341V12.634H11.5093V9.33691Z" stroke="#020526" stroke-miterlimit="10"/>
<path d="M7.12341 18.1196H0.547501V21.4168H7.12341V18.1196Z" stroke="#020526" stroke-miterlimit="10"/>
<path d="M13.1518 21.4168H9.31931V18.1196H14.7943" stroke="#020526" stroke-miterlimit="10"/>
<path d="M12.6043 3.8457V6.58839" stroke="#020526" stroke-miterlimit="10"/>
<path d="M8.21841 9.33697V6.58838H17.5377V9.33697" stroke="#020526" stroke-miterlimit="10"/>
<path d="M8.21841 12.6279V15.3765" stroke="#020526" stroke-miterlimit="10"/>
<path d="M3.83839 18.1196V15.377H12.6043V18.1196" stroke="#020526" stroke-miterlimit="10"/>
</g>
<defs>
<clipPath id="clip0_103_1612">
<rect width="25.2086" height="24" fill="white"/>
</clipPath>
</defs>
</svg>
