<svg width="27" height="28" viewBox="0 0 27 28" fill="none" xmlns="http://www.w3.org/2000/svg">
<g clip-path="url(#clip0_103_1415)">
<path d="M12.3272 22.1656C17.8697 18.957 20.5432 23.1307 26.4136 21V12.2516C20.5432 14.3885 17.8634 10.2086 12.3272 13.4172V22.1656Z" stroke="#020526" stroke-linecap="round" stroke-linejoin="round"/>
<path d="M12.3272 28V11.0797C12.3272 10.4342 12.8506 9.91406 13.5 9.91406C14.1495 9.91406 14.6728 10.4342 14.6728 11.0797V12.2453" stroke="#020526" stroke-linejoin="round"/>
<path d="M14.6728 21V28" stroke="#020526" stroke-linejoin="round"/>
<path d="M20.5432 11.0858V7.58262C14.6728 9.7196 11.993 5.53965 6.45679 8.74825V17.4967C8.00793 16.6005 9.33208 16.2809 10.568 16.2371" stroke="#020526" stroke-linecap="round" stroke-linejoin="round"/>
<path d="M6.45679 27.9999V6.41709C6.45679 5.77161 6.98014 5.25146 7.6296 5.25146C8.27907 5.25146 8.80242 5.77161 8.80242 6.41709V7.58271" stroke="#020526" stroke-linejoin="round"/>
<path d="M8.80243 16.3374V27.9999" stroke="#020526" stroke-linejoin="round"/>
<path d="M14.6728 6.41712V2.91399C8.80245 5.05096 6.12893 0.871013 0.586426 4.08587V12.8343C2.13757 11.9382 3.46172 11.6185 4.69759 11.5747" stroke="#020526" stroke-linecap="round" stroke-linejoin="round"/>
<path d="M0.586426 28.0002V1.74863C0.586426 1.10315 1.10978 0.583008 1.75924 0.583008C2.4087 0.583008 2.93206 1.10315 2.93206 1.74863V2.91425" stroke="#020526" stroke-linejoin="round"/>
<path d="M2.93207 11.6689V28.0002" stroke="#020526" stroke-linejoin="round"/>
</g>
<defs>
<clipPath id="clip0_103_1415">
<rect width="27" height="28" fill="white"/>
</clipPath>
</defs>
</svg>
